<mxfile host="Electron" modified="2024-07-08T13:01:45.296Z" agent="Mozilla/5.0 (Macintosh; Intel Mac OS X 10_15_7) AppleWebKit/537.36 (KHTML, like Gecko) draw.io/24.6.4 Chrome/124.0.6367.207 Electron/30.0.6 Safari/537.36" etag="4P0O0A6mVfZ3N8qjdrxR" version="24.6.4" type="device" pages="4">
  <diagram id="Rfz-nHKzfFXtIfp8jGCo" name="main">
    <mxGraphModel dx="1100" dy="713" grid="1" gridSize="10" guides="1" tooltips="1" connect="1" arrows="1" fold="1" page="1" pageScale="1" pageWidth="850" pageHeight="1100" math="0" shadow="0">
      <root>
        <mxCell id="0" />
        <mxCell id="1" parent="0" />
        <mxCell id="_-YTuwWALcvk040Sg-yM-1" value="Identity" style="rounded=1;whiteSpace=wrap;html=1;container=1;recursiveResize=0;verticalAlign=top;arcSize=6;fontStyle=1;autosize=0;points=[];absoluteArcSize=1;shadow=1;strokeColor=#6c8ebf;fillColor=#dae8fc;fontFamily=Helvetica;fontSize=11;gradientColor=#0050EF;fontColor=default;" parent="1" vertex="1">
          <mxGeometry x="340" y="120" width="138" height="110" as="geometry">
            <mxRectangle x="-98" y="-1230" width="99" height="26" as="alternateBounds" />
          </mxGeometry>
        </mxCell>
        <mxCell id="_-YTuwWALcvk040Sg-yM-2" value="" style="rounded=1;whiteSpace=wrap;html=1;sketch=0;points=[[0,0.5,0,0,0],[1,0.5,0,0,0]];arcSize=50;fontFamily=Helvetica;fontSize=11;fontColor=default;" parent="_-YTuwWALcvk040Sg-yM-1" vertex="1">
          <mxGeometry x="-16.75" y="27.5" width="36.75" height="25" as="geometry" />
        </mxCell>
        <mxCell id="_-YTuwWALcvk040Sg-yM-3" value="" style="rounded=1;whiteSpace=wrap;html=1;sketch=0;points=[[0,0.5,0,0,0],[1,0.5,0,0,0]];fillColor=#1ba1e2;fontColor=#ffffff;strokeColor=#006EAF;arcSize=50;fontFamily=Helvetica;fontSize=11;" parent="_-YTuwWALcvk040Sg-yM-1" vertex="1">
          <mxGeometry x="120" y="27.5" width="36" height="25" as="geometry" />
        </mxCell>
        <mxCell id="_-YTuwWALcvk040Sg-yM-4" value="✗" style="rounded=1;whiteSpace=wrap;html=1;sketch=0;points=[[0,0.5,0,0,0],[1,0.5,0,0,0]];fillColor=#1ba1e2;fontColor=#ffffff;strokeColor=#006EAF;arcSize=50;fontFamily=Helvetica;fontSize=11;textOpacity=30;" parent="_-YTuwWALcvk040Sg-yM-1" vertex="1">
          <mxGeometry x="120" y="60" width="36" height="25" as="geometry" />
        </mxCell>
        <mxCell id="_-YTuwWALcvk040Sg-yM-5" value="" style="rhombus;whiteSpace=wrap;html=1;rounded=1;fontStyle=1;glass=0;sketch=0;fontSize=12;points=[[0,0.5,0,0,0],[0.5,0,0,0,0],[0.5,1,0,0,0],[1,0.5,0,0,0]];shadow=1;fontFamily=Helvetica;fontColor=default;" parent="1" vertex="1">
          <mxGeometry x="20" y="140" width="40" height="40" as="geometry" />
        </mxCell>
        <mxCell id="_-YTuwWALcvk040Sg-yM-6" value="python" style="rhombus;whiteSpace=wrap;html=1;rounded=1;fontStyle=1;glass=0;sketch=0;fontSize=12;points=[[0,0.5,0,0,0],[0.5,0,0,0,0],[0.5,1,0,0,0],[1,0.5,0,0,0]];shadow=1;fillColor=#0050ef;fontColor=#ffffff;strokeColor=#001DBC;fontFamily=Helvetica;" parent="1" vertex="1">
          <mxGeometry x="1160" y="500" width="40" height="40" as="geometry" />
        </mxCell>
        <mxCell id="_-YTuwWALcvk040Sg-yM-7" value="✗" style="rhombus;whiteSpace=wrap;html=1;rounded=1;fillColor=#0050ef;fontColor=#ffffff;strokeColor=#001DBC;fontStyle=1;glass=0;sketch=0;fontSize=12;points=[[0,0.5,0,0,0],[0.5,0,0,0,0],[0.5,1,0,0,0],[1,0.5,0,0,0]];shadow=1;opacity=30;textOpacity=30;" parent="1" vertex="1">
          <mxGeometry x="1085" y="280" width="40" height="40" as="geometry" />
        </mxCell>
        <mxCell id="_-YTuwWALcvk040Sg-yM-9" style="edgeStyle=orthogonalEdgeStyle;rounded=1;orthogonalLoop=1;jettySize=auto;html=1;exitX=1;exitY=0.5;exitDx=0;exitDy=0;exitPerimeter=0;entryX=0;entryY=0.5;entryDx=0;entryDy=0;entryPerimeter=0;curved=0;opacity=30;" parent="1" source="_-YTuwWALcvk040Sg-yM-4" target="_-YTuwWALcvk040Sg-yM-7" edge="1">
          <mxGeometry relative="1" as="geometry">
            <Array as="points">
              <mxPoint x="560" y="193" />
              <mxPoint x="560" y="300" />
            </Array>
          </mxGeometry>
        </mxCell>
        <mxCell id="VGZLOjveox1qzQNJpgzl-1" value="Read Text File" style="rounded=1;whiteSpace=wrap;html=1;sketch=0;container=1;recursiveResize=0;verticalAlign=top;arcSize=6;fontStyle=1;autosize=0;points=[];absoluteArcSize=1;shadow=1;strokeColor=#001DBC;fillColor=#0050ef;fontColor=#ffffff;fontFamily=Helvetica;fontSize=11;" parent="1" vertex="1">
          <mxGeometry x="130" y="120" width="130" height="110" as="geometry">
            <mxRectangle x="-98" y="-1230" width="99" height="26" as="alternateBounds" />
          </mxGeometry>
        </mxCell>
        <mxCell id="VGZLOjveox1qzQNJpgzl-2" value="" style="rounded=1;whiteSpace=wrap;html=1;sketch=0;points=[[0,0.5,0,0,0],[1,0.5,0,0,0]];arcSize=50;fontFamily=Helvetica;fontSize=11;fontColor=default;" parent="VGZLOjveox1qzQNJpgzl-1" vertex="1">
          <mxGeometry x="-10" y="27.5" width="39.25" height="25" as="geometry" />
        </mxCell>
        <mxCell id="VGZLOjveox1qzQNJpgzl-3" value="" style="rounded=1;whiteSpace=wrap;html=1;sketch=0;points=[[0,0.5,0,0,0],[1,0.5,0,0,0]];fillColor=#1ba1e2;fontColor=#ffffff;strokeColor=#006EAF;arcSize=50;fontFamily=Helvetica;fontSize=11;" parent="VGZLOjveox1qzQNJpgzl-1" vertex="1">
          <mxGeometry x="110" y="27.5" width="35.25" height="25" as="geometry" />
        </mxCell>
        <mxCell id="VGZLOjveox1qzQNJpgzl-4" value="✗" style="rounded=1;whiteSpace=wrap;html=1;sketch=0;points=[[0,0.5,0,0,0],[1,0.5,0,0,0]];fillColor=#1ba1e2;fontColor=#ffffff;strokeColor=#006EAF;arcSize=50;fontFamily=Helvetica;fontSize=11;textOpacity=30;opacity=30;" parent="VGZLOjveox1qzQNJpgzl-1" vertex="1">
          <mxGeometry x="110" y="67.5" width="35.25" height="25" as="geometry" />
        </mxCell>
        <mxCell id="VGZLOjveox1qzQNJpgzl-5" style="edgeStyle=orthogonalEdgeStyle;rounded=0;orthogonalLoop=1;jettySize=auto;html=1;exitX=1;exitY=0.5;exitDx=0;exitDy=0;exitPerimeter=0;entryX=0;entryY=0.5;entryDx=0;entryDy=0;entryPerimeter=0;strokeWidth=2;" parent="1" source="_-YTuwWALcvk040Sg-yM-5" target="VGZLOjveox1qzQNJpgzl-2" edge="1">
          <mxGeometry relative="1" as="geometry" />
        </mxCell>
        <mxCell id="VGZLOjveox1qzQNJpgzl-7" style="edgeStyle=orthogonalEdgeStyle;rounded=1;orthogonalLoop=1;jettySize=auto;html=1;exitX=1;exitY=0.5;exitDx=0;exitDy=0;exitPerimeter=0;entryX=0;entryY=0.5;entryDx=0;entryDy=0;entryPerimeter=0;curved=0;opacity=30;" parent="1" source="VGZLOjveox1qzQNJpgzl-4" target="_-YTuwWALcvk040Sg-yM-7" edge="1">
          <mxGeometry relative="1" as="geometry">
            <Array as="points">
              <mxPoint x="290" y="200" />
              <mxPoint x="290" y="300" />
            </Array>
          </mxGeometry>
        </mxCell>
        <mxCell id="LCIWxbHtnL4AgZjA0z7f-1" value="$ node indenter.js" style="rounded=1;whiteSpace=wrap;html=1;container=1;recursiveResize=0;verticalAlign=top;arcSize=6;fontStyle=1;autosize=0;points=[];absoluteArcSize=1;shadow=1;strokeColor=#6c8ebf;fillColor=#dae8fc;fontFamily=Helvetica;fontSize=11;gradientColor=#0050EF;fontColor=default;" parent="1" vertex="1">
          <mxGeometry x="870" y="480" width="138" height="100" as="geometry">
            <mxRectangle x="-98" y="-1230" width="99" height="26" as="alternateBounds" />
          </mxGeometry>
        </mxCell>
        <mxCell id="LCIWxbHtnL4AgZjA0z7f-2" value="" style="rounded=1;whiteSpace=wrap;html=1;sketch=0;points=[[0,0.5,0,0,0],[1,0.5,0,0,0]];arcSize=50;fontFamily=Helvetica;fontSize=11;fontColor=default;" parent="LCIWxbHtnL4AgZjA0z7f-1" vertex="1">
          <mxGeometry x="-16.75" y="27.5" width="36.75" height="25" as="geometry" />
        </mxCell>
        <mxCell id="LCIWxbHtnL4AgZjA0z7f-3" value="" style="rounded=1;whiteSpace=wrap;html=1;sketch=0;points=[[0,0.5,0,0,0],[1,0.5,0,0,0]];fillColor=#1ba1e2;fontColor=#ffffff;strokeColor=#006EAF;arcSize=50;fontFamily=Helvetica;fontSize=11;" parent="LCIWxbHtnL4AgZjA0z7f-1" vertex="1">
          <mxGeometry x="120" y="27.5" width="36" height="25" as="geometry" />
        </mxCell>
        <mxCell id="LCIWxbHtnL4AgZjA0z7f-4" value="✗" style="rounded=1;whiteSpace=wrap;html=1;sketch=0;points=[[0,0.5,0,0,0],[1,0.5,0,0,0]];fillColor=#1ba1e2;fontColor=#ffffff;strokeColor=#006EAF;arcSize=50;fontFamily=Helvetica;fontSize=11;textOpacity=30;" parent="LCIWxbHtnL4AgZjA0z7f-1" vertex="1">
          <mxGeometry x="120" y="60" width="36" height="25" as="geometry" />
        </mxCell>
        <mxCell id="AomCqyVgUgGo4Gin0dHb-2" style="edgeStyle=orthogonalEdgeStyle;curved=0;rounded=1;orthogonalLoop=1;jettySize=auto;html=1;exitX=1;exitY=0.5;exitDx=0;exitDy=0;exitPerimeter=0;entryX=0;entryY=0.5;entryDx=0;entryDy=0;entryPerimeter=0;strokeColor=default;strokeWidth=2;align=center;verticalAlign=middle;fontFamily=Helvetica;fontSize=11;fontColor=default;labelBackgroundColor=default;endArrow=classic;" parent="1" source="LCIWxbHtnL4AgZjA0z7f-3" target="_-YTuwWALcvk040Sg-yM-6" edge="1">
          <mxGeometry relative="1" as="geometry" />
        </mxCell>
        <mxCell id="AomCqyVgUgGo4Gin0dHb-5" value="$ node scrubber.js" style="rounded=1;whiteSpace=wrap;html=1;container=1;recursiveResize=0;verticalAlign=top;arcSize=6;fontStyle=1;autosize=0;points=[];absoluteArcSize=1;shadow=1;strokeColor=#6c8ebf;fillColor=#dae8fc;fontFamily=Helvetica;fontSize=11;gradientColor=#0050EF;fontColor=default;" parent="1" vertex="1">
          <mxGeometry x="630" y="480" width="138" height="100" as="geometry">
            <mxRectangle x="-98" y="-1230" width="99" height="26" as="alternateBounds" />
          </mxGeometry>
        </mxCell>
        <mxCell id="AomCqyVgUgGo4Gin0dHb-6" value="" style="rounded=1;whiteSpace=wrap;html=1;sketch=0;points=[[0,0.5,0,0,0],[1,0.5,0,0,0]];arcSize=50;fontFamily=Helvetica;fontSize=11;fontColor=default;" parent="AomCqyVgUgGo4Gin0dHb-5" vertex="1">
          <mxGeometry x="-16.75" y="27.5" width="36.75" height="25" as="geometry" />
        </mxCell>
        <mxCell id="AomCqyVgUgGo4Gin0dHb-7" value="" style="rounded=1;whiteSpace=wrap;html=1;sketch=0;points=[[0,0.5,0,0,0],[1,0.5,0,0,0]];fillColor=#1ba1e2;fontColor=#ffffff;strokeColor=#006EAF;arcSize=50;fontFamily=Helvetica;fontSize=11;" parent="AomCqyVgUgGo4Gin0dHb-5" vertex="1">
          <mxGeometry x="120" y="27.5" width="36" height="25" as="geometry" />
        </mxCell>
        <mxCell id="AomCqyVgUgGo4Gin0dHb-8" value="✗" style="rounded=1;whiteSpace=wrap;html=1;sketch=0;points=[[0,0.5,0,0,0],[1,0.5,0,0,0]];fillColor=#1ba1e2;fontColor=#ffffff;strokeColor=#006EAF;arcSize=50;fontFamily=Helvetica;fontSize=11;textOpacity=30;" parent="AomCqyVgUgGo4Gin0dHb-5" vertex="1">
          <mxGeometry x="120" y="60" width="36" height="25" as="geometry" />
        </mxCell>
        <mxCell id="AomCqyVgUgGo4Gin0dHb-12" style="edgeStyle=orthogonalEdgeStyle;curved=0;rounded=1;orthogonalLoop=1;jettySize=auto;html=1;exitX=1;exitY=0.5;exitDx=0;exitDy=0;exitPerimeter=0;entryX=0;entryY=0.5;entryDx=0;entryDy=0;entryPerimeter=0;strokeColor=default;strokeWidth=2;align=center;verticalAlign=middle;fontFamily=Helvetica;fontSize=11;fontColor=default;labelBackgroundColor=default;endArrow=classic;" parent="1" source="AomCqyVgUgGo4Gin0dHb-7" target="LCIWxbHtnL4AgZjA0z7f-2" edge="1">
          <mxGeometry relative="1" as="geometry" />
        </mxCell>
        <mxCell id="a-QhwRuGZGvBJA7zuhan-1" value="Common Lisp" style="rounded=1;whiteSpace=wrap;html=1;container=1;recursiveResize=0;verticalAlign=top;arcSize=6;fontStyle=1;autosize=0;points=[];absoluteArcSize=1;shadow=1;strokeColor=#6c8ebf;fillColor=#dae8fc;fontFamily=Helvetica;fontSize=11;gradientColor=#0050EF;fontColor=default;" vertex="1" parent="1">
          <mxGeometry x="340" y="320" width="138" height="110" as="geometry">
            <mxRectangle x="-98" y="-1230" width="99" height="26" as="alternateBounds" />
          </mxGeometry>
        </mxCell>
        <mxCell id="a-QhwRuGZGvBJA7zuhan-2" value="" style="rounded=1;whiteSpace=wrap;html=1;sketch=0;points=[[0,0.5,0,0,0],[1,0.5,0,0,0]];arcSize=50;fontFamily=Helvetica;fontSize=11;fontColor=default;" vertex="1" parent="a-QhwRuGZGvBJA7zuhan-1">
          <mxGeometry x="-16.75" y="27.5" width="36.75" height="25" as="geometry" />
        </mxCell>
        <mxCell id="a-QhwRuGZGvBJA7zuhan-3" value="" style="rounded=1;whiteSpace=wrap;html=1;sketch=0;points=[[0,0.5,0,0,0],[1,0.5,0,0,0]];fillColor=#1ba1e2;fontColor=#ffffff;strokeColor=#006EAF;arcSize=50;fontFamily=Helvetica;fontSize=11;" vertex="1" parent="a-QhwRuGZGvBJA7zuhan-1">
          <mxGeometry x="120" y="27.5" width="36" height="25" as="geometry" />
        </mxCell>
        <mxCell id="a-QhwRuGZGvBJA7zuhan-4" value="✗" style="rounded=1;whiteSpace=wrap;html=1;sketch=0;points=[[0,0.5,0,0,0],[1,0.5,0,0,0]];fillColor=#1ba1e2;fontColor=#ffffff;strokeColor=#006EAF;arcSize=50;fontFamily=Helvetica;fontSize=11;textOpacity=30;" vertex="1" parent="a-QhwRuGZGvBJA7zuhan-1">
          <mxGeometry x="120" y="60" width="36" height="25" as="geometry" />
        </mxCell>
        <mxCell id="a-QhwRuGZGvBJA7zuhan-5" style="edgeStyle=orthogonalEdgeStyle;rounded=1;orthogonalLoop=1;jettySize=auto;html=1;exitX=1;exitY=0.5;exitDx=0;exitDy=0;exitPerimeter=0;entryX=0;entryY=0.5;entryDx=0;entryDy=0;entryPerimeter=0;curved=0;strokeWidth=2;" edge="1" parent="1" source="VGZLOjveox1qzQNJpgzl-3" target="a-QhwRuGZGvBJA7zuhan-2">
          <mxGeometry relative="1" as="geometry" />
        </mxCell>
        <mxCell id="a-QhwRuGZGvBJA7zuhan-6" style="edgeStyle=orthogonalEdgeStyle;rounded=1;orthogonalLoop=1;jettySize=auto;html=1;exitX=1;exitY=0.5;exitDx=0;exitDy=0;exitPerimeter=0;entryX=0;entryY=0.5;entryDx=0;entryDy=0;entryPerimeter=0;curved=0;strokeWidth=2;" edge="1" parent="1" source="a-QhwRuGZGvBJA7zuhan-3" target="muS90Lyi-2VeOUaxBQOB-8">
          <mxGeometry relative="1" as="geometry" />
        </mxCell>
        <mxCell id="a-QhwRuGZGvBJA7zuhan-7" style="edgeStyle=orthogonalEdgeStyle;rounded=1;orthogonalLoop=1;jettySize=auto;html=1;exitX=1;exitY=0.5;exitDx=0;exitDy=0;exitPerimeter=0;entryX=0;entryY=0.5;entryDx=0;entryDy=0;entryPerimeter=0;curved=0;opacity=30;" edge="1" parent="1" source="a-QhwRuGZGvBJA7zuhan-4" target="_-YTuwWALcvk040Sg-yM-7">
          <mxGeometry relative="1" as="geometry">
            <Array as="points">
              <mxPoint x="560" y="393" />
              <mxPoint x="560" y="300" />
            </Array>
          </mxGeometry>
        </mxCell>
        <mxCell id="a-QhwRuGZGvBJA7zuhan-8" value="Python" style="rounded=1;whiteSpace=wrap;html=1;container=1;recursiveResize=0;verticalAlign=top;arcSize=6;fontStyle=1;autosize=0;points=[];absoluteArcSize=1;shadow=1;strokeColor=#6c8ebf;fillColor=#dae8fc;fontFamily=Helvetica;fontSize=11;gradientColor=#0050EF;fontColor=default;" vertex="1" parent="1">
          <mxGeometry x="350" y="480" width="138" height="110" as="geometry">
            <mxRectangle x="-98" y="-1230" width="99" height="26" as="alternateBounds" />
          </mxGeometry>
        </mxCell>
        <mxCell id="a-QhwRuGZGvBJA7zuhan-9" value="" style="rounded=1;whiteSpace=wrap;html=1;sketch=0;points=[[0,0.5,0,0,0],[1,0.5,0,0,0]];arcSize=50;fontFamily=Helvetica;fontSize=11;fontColor=default;" vertex="1" parent="a-QhwRuGZGvBJA7zuhan-8">
          <mxGeometry x="-16.75" y="27.5" width="36.75" height="25" as="geometry" />
        </mxCell>
        <mxCell id="a-QhwRuGZGvBJA7zuhan-10" value="" style="rounded=1;whiteSpace=wrap;html=1;sketch=0;points=[[0,0.5,0,0,0],[1,0.5,0,0,0]];fillColor=#1ba1e2;fontColor=#ffffff;strokeColor=#006EAF;arcSize=50;fontFamily=Helvetica;fontSize=11;" vertex="1" parent="a-QhwRuGZGvBJA7zuhan-8">
          <mxGeometry x="120" y="27.5" width="36" height="25" as="geometry" />
        </mxCell>
        <mxCell id="a-QhwRuGZGvBJA7zuhan-11" value="✗" style="rounded=1;whiteSpace=wrap;html=1;sketch=0;points=[[0,0.5,0,0,0],[1,0.5,0,0,0]];fillColor=#1ba1e2;fontColor=#ffffff;strokeColor=#006EAF;arcSize=50;fontFamily=Helvetica;fontSize=11;textOpacity=30;" vertex="1" parent="a-QhwRuGZGvBJA7zuhan-8">
          <mxGeometry x="120" y="60" width="36" height="25" as="geometry" />
        </mxCell>
        <mxCell id="a-QhwRuGZGvBJA7zuhan-13" style="edgeStyle=orthogonalEdgeStyle;rounded=1;orthogonalLoop=1;jettySize=auto;html=1;exitX=1;exitY=0.5;exitDx=0;exitDy=0;exitPerimeter=0;entryX=0;entryY=0.5;entryDx=0;entryDy=0;entryPerimeter=0;curved=0;strokeWidth=2;" edge="1" parent="1" source="a-QhwRuGZGvBJA7zuhan-10" target="AomCqyVgUgGo4Gin0dHb-6">
          <mxGeometry relative="1" as="geometry" />
        </mxCell>
        <mxCell id="muS90Lyi-2VeOUaxBQOB-1" value="identity" style="rhombus;whiteSpace=wrap;html=1;rounded=1;fontStyle=1;glass=0;sketch=0;fontSize=12;points=[[0,0.5,0,0,0],[0.5,0,0,0,0],[0.5,1,0,0,0],[1,0.5,0,0,0]];shadow=1;fillColor=#0050ef;fontColor=#ffffff;strokeColor=#001DBC;fontFamily=Helvetica;" vertex="1" parent="1">
          <mxGeometry x="1160" y="140" width="40" height="40" as="geometry" />
        </mxCell>
        <mxCell id="muS90Lyi-2VeOUaxBQOB-2" value="" style="rhombus;whiteSpace=wrap;html=1;rounded=1;fontStyle=1;glass=0;sketch=0;fontSize=12;points=[[0,0.5,0,0,0],[0.5,0,0,0,0],[0.5,1,0,0,0],[1,0.5,0,0,0]];shadow=1;fillColor=#0050ef;fontColor=#ffffff;strokeColor=#001DBC;fontFamily=Helvetica;" vertex="1" parent="1">
          <mxGeometry x="1160" y="340" width="40" height="40" as="geometry" />
        </mxCell>
        <mxCell id="muS90Lyi-2VeOUaxBQOB-3" style="edgeStyle=orthogonalEdgeStyle;rounded=1;orthogonalLoop=1;jettySize=auto;html=1;exitX=1;exitY=0.5;exitDx=0;exitDy=0;exitPerimeter=0;entryX=0;entryY=0.5;entryDx=0;entryDy=0;entryPerimeter=0;curved=0;strokeWidth=2;" edge="1" parent="1" source="_-YTuwWALcvk040Sg-yM-3" target="muS90Lyi-2VeOUaxBQOB-1">
          <mxGeometry relative="1" as="geometry" />
        </mxCell>
        <mxCell id="muS90Lyi-2VeOUaxBQOB-4" style="edgeStyle=orthogonalEdgeStyle;shape=connector;curved=0;rounded=1;orthogonalLoop=1;jettySize=auto;html=1;exitX=1;exitY=0.5;exitDx=0;exitDy=0;exitPerimeter=0;strokeColor=default;strokeWidth=1;align=center;verticalAlign=middle;fontFamily=Helvetica;fontSize=11;fontColor=default;labelBackgroundColor=default;endArrow=classic;entryX=0;entryY=0.5;entryDx=0;entryDy=0;entryPerimeter=0;opacity=30;" edge="1" parent="1" source="a-QhwRuGZGvBJA7zuhan-11" target="_-YTuwWALcvk040Sg-yM-7">
          <mxGeometry relative="1" as="geometry">
            <Array as="points">
              <mxPoint x="560" y="553" />
              <mxPoint x="560" y="300" />
            </Array>
          </mxGeometry>
        </mxCell>
        <mxCell id="muS90Lyi-2VeOUaxBQOB-5" style="edgeStyle=orthogonalEdgeStyle;shape=connector;curved=0;rounded=1;orthogonalLoop=1;jettySize=auto;html=1;exitX=1;exitY=0.5;exitDx=0;exitDy=0;exitPerimeter=0;opacity=30;strokeColor=default;strokeWidth=1;align=center;verticalAlign=middle;fontFamily=Helvetica;fontSize=11;fontColor=default;labelBackgroundColor=default;endArrow=classic;entryX=0;entryY=0.5;entryDx=0;entryDy=0;entryPerimeter=0;" edge="1" parent="1" source="AomCqyVgUgGo4Gin0dHb-8" target="_-YTuwWALcvk040Sg-yM-7">
          <mxGeometry relative="1" as="geometry">
            <mxPoint x="820" y="420" as="targetPoint" />
            <Array as="points">
              <mxPoint x="810" y="553" />
              <mxPoint x="810" y="300" />
            </Array>
          </mxGeometry>
        </mxCell>
        <mxCell id="muS90Lyi-2VeOUaxBQOB-6" style="edgeStyle=orthogonalEdgeStyle;shape=connector;curved=0;rounded=1;orthogonalLoop=1;jettySize=auto;html=1;exitX=1;exitY=0.5;exitDx=0;exitDy=0;exitPerimeter=0;entryX=0;entryY=0.5;entryDx=0;entryDy=0;entryPerimeter=0;opacity=30;strokeColor=default;strokeWidth=1;align=center;verticalAlign=middle;fontFamily=Helvetica;fontSize=11;fontColor=default;labelBackgroundColor=default;endArrow=classic;" edge="1" parent="1" source="LCIWxbHtnL4AgZjA0z7f-4" target="_-YTuwWALcvk040Sg-yM-7">
          <mxGeometry relative="1" as="geometry" />
        </mxCell>
        <mxCell id="muS90Lyi-2VeOUaxBQOB-7" value="$ node cl-scrubber.js" style="rounded=1;whiteSpace=wrap;html=1;container=1;recursiveResize=0;verticalAlign=top;arcSize=6;fontStyle=1;autosize=0;points=[];absoluteArcSize=1;shadow=1;strokeColor=#6c8ebf;fillColor=#dae8fc;fontFamily=Helvetica;fontSize=11;gradientColor=#0050EF;fontColor=default;" vertex="1" parent="1">
          <mxGeometry x="630" y="320" width="138" height="100" as="geometry">
            <mxRectangle x="-98" y="-1230" width="99" height="26" as="alternateBounds" />
          </mxGeometry>
        </mxCell>
        <mxCell id="muS90Lyi-2VeOUaxBQOB-8" value="" style="rounded=1;whiteSpace=wrap;html=1;sketch=0;points=[[0,0.5,0,0,0],[1,0.5,0,0,0]];arcSize=50;fontFamily=Helvetica;fontSize=11;fontColor=default;" vertex="1" parent="muS90Lyi-2VeOUaxBQOB-7">
          <mxGeometry x="-16.75" y="27.5" width="36.75" height="25" as="geometry" />
        </mxCell>
        <mxCell id="muS90Lyi-2VeOUaxBQOB-9" value="" style="rounded=1;whiteSpace=wrap;html=1;sketch=0;points=[[0,0.5,0,0,0],[1,0.5,0,0,0]];fillColor=#1ba1e2;fontColor=#ffffff;strokeColor=#006EAF;arcSize=50;fontFamily=Helvetica;fontSize=11;" vertex="1" parent="muS90Lyi-2VeOUaxBQOB-7">
          <mxGeometry x="120" y="27.5" width="36" height="25" as="geometry" />
        </mxCell>
        <mxCell id="muS90Lyi-2VeOUaxBQOB-10" value="✗" style="rounded=1;whiteSpace=wrap;html=1;sketch=0;points=[[0,0.5,0,0,0],[1,0.5,0,0,0]];fillColor=#1ba1e2;fontColor=#ffffff;strokeColor=#006EAF;arcSize=50;fontFamily=Helvetica;fontSize=11;textOpacity=30;" vertex="1" parent="muS90Lyi-2VeOUaxBQOB-7">
          <mxGeometry x="120" y="60" width="36" height="25" as="geometry" />
        </mxCell>
        <mxCell id="muS90Lyi-2VeOUaxBQOB-11" style="edgeStyle=orthogonalEdgeStyle;shape=connector;curved=0;rounded=1;orthogonalLoop=1;jettySize=auto;html=1;exitX=1;exitY=0.5;exitDx=0;exitDy=0;exitPerimeter=0;entryX=0;entryY=0.5;entryDx=0;entryDy=0;entryPerimeter=0;strokeColor=default;strokeWidth=2;align=center;verticalAlign=middle;fontFamily=Helvetica;fontSize=11;fontColor=default;labelBackgroundColor=default;endArrow=classic;" edge="1" parent="1" source="muS90Lyi-2VeOUaxBQOB-9" target="muS90Lyi-2VeOUaxBQOB-14">
          <mxGeometry relative="1" as="geometry" />
        </mxCell>
        <mxCell id="muS90Lyi-2VeOUaxBQOB-12" style="edgeStyle=orthogonalEdgeStyle;shape=connector;curved=0;rounded=1;orthogonalLoop=1;jettySize=auto;html=1;exitX=1;exitY=0.5;exitDx=0;exitDy=0;exitPerimeter=0;entryX=0;entryY=0.5;entryDx=0;entryDy=0;entryPerimeter=0;opacity=30;strokeColor=default;strokeWidth=1;align=center;verticalAlign=middle;fontFamily=Helvetica;fontSize=11;fontColor=default;labelBackgroundColor=default;endArrow=classic;" edge="1" parent="1" source="muS90Lyi-2VeOUaxBQOB-10" target="_-YTuwWALcvk040Sg-yM-7">
          <mxGeometry relative="1" as="geometry">
            <Array as="points">
              <mxPoint x="810" y="393" />
              <mxPoint x="810" y="300" />
            </Array>
          </mxGeometry>
        </mxCell>
        <mxCell id="muS90Lyi-2VeOUaxBQOB-13" value="$ node clindenter.js" style="rounded=1;whiteSpace=wrap;html=1;container=1;recursiveResize=0;verticalAlign=top;arcSize=6;fontStyle=1;autosize=0;points=[];absoluteArcSize=1;shadow=1;strokeColor=#6c8ebf;fillColor=#dae8fc;fontFamily=Helvetica;fontSize=11;gradientColor=#0050EF;fontColor=default;" vertex="1" parent="1">
          <mxGeometry x="870" y="320" width="138" height="100" as="geometry">
            <mxRectangle x="-98" y="-1230" width="99" height="26" as="alternateBounds" />
          </mxGeometry>
        </mxCell>
        <mxCell id="muS90Lyi-2VeOUaxBQOB-14" value="" style="rounded=1;whiteSpace=wrap;html=1;sketch=0;points=[[0,0.5,0,0,0],[1,0.5,0,0,0]];arcSize=50;fontFamily=Helvetica;fontSize=11;fontColor=default;" vertex="1" parent="muS90Lyi-2VeOUaxBQOB-13">
          <mxGeometry x="-16.75" y="27.5" width="36.75" height="25" as="geometry" />
        </mxCell>
        <mxCell id="muS90Lyi-2VeOUaxBQOB-15" value="" style="rounded=1;whiteSpace=wrap;html=1;sketch=0;points=[[0,0.5,0,0,0],[1,0.5,0,0,0]];fillColor=#1ba1e2;fontColor=#ffffff;strokeColor=#006EAF;arcSize=50;fontFamily=Helvetica;fontSize=11;" vertex="1" parent="muS90Lyi-2VeOUaxBQOB-13">
          <mxGeometry x="120" y="27.5" width="36" height="25" as="geometry" />
        </mxCell>
        <mxCell id="muS90Lyi-2VeOUaxBQOB-16" value="✗" style="rounded=1;whiteSpace=wrap;html=1;sketch=0;points=[[0,0.5,0,0,0],[1,0.5,0,0,0]];fillColor=#1ba1e2;fontColor=#ffffff;strokeColor=#006EAF;arcSize=50;fontFamily=Helvetica;fontSize=11;textOpacity=30;" vertex="1" parent="muS90Lyi-2VeOUaxBQOB-13">
          <mxGeometry x="120" y="60" width="36" height="25" as="geometry" />
        </mxCell>
        <mxCell id="muS90Lyi-2VeOUaxBQOB-17" style="edgeStyle=orthogonalEdgeStyle;shape=connector;curved=0;rounded=1;orthogonalLoop=1;jettySize=auto;html=1;exitX=1;exitY=0.5;exitDx=0;exitDy=0;exitPerimeter=0;strokeColor=default;strokeWidth=2;align=center;verticalAlign=middle;fontFamily=Helvetica;fontSize=11;fontColor=default;labelBackgroundColor=default;endArrow=classic;" edge="1" parent="1" source="muS90Lyi-2VeOUaxBQOB-15" target="muS90Lyi-2VeOUaxBQOB-2">
          <mxGeometry relative="1" as="geometry" />
        </mxCell>
        <mxCell id="muS90Lyi-2VeOUaxBQOB-18" style="edgeStyle=orthogonalEdgeStyle;shape=connector;curved=0;rounded=1;orthogonalLoop=1;jettySize=auto;html=1;exitX=1;exitY=0.5;exitDx=0;exitDy=0;exitPerimeter=0;entryX=0;entryY=0.5;entryDx=0;entryDy=0;entryPerimeter=0;opacity=30;strokeColor=default;strokeWidth=1;align=center;verticalAlign=middle;fontFamily=Helvetica;fontSize=11;fontColor=default;labelBackgroundColor=default;endArrow=classic;" edge="1" parent="1" source="muS90Lyi-2VeOUaxBQOB-16" target="_-YTuwWALcvk040Sg-yM-7">
          <mxGeometry relative="1" as="geometry" />
        </mxCell>
      </root>
    </mxGraphModel>
  </diagram>
  <diagram id="OewrlN-aW3Z1gZfYzT8p" name="Identity">
    <mxGraphModel dx="1100" dy="713" grid="1" gridSize="10" guides="1" tooltips="1" connect="1" arrows="1" fold="1" page="1" pageScale="1" pageWidth="850" pageHeight="1100" math="0" shadow="0">
      <root>
        <mxCell id="0" />
        <mxCell id="1" parent="0" />
        <mxCell id="bXsoa_GCizV7jXiJWsjs-1" value="Transpile" style="rounded=1;whiteSpace=wrap;sketch=0;container=1;recursiveResize=0;verticalAlign=top;arcSize=6;fontStyle=1;autosize=0;points=[];absoluteArcSize=1;shadow=1;strokeColor=#001DBC;fillColor=#0050ef;fontColor=#ffffff;fontFamily=Helvetica;fontSize=11;" parent="1" vertex="1">
          <mxGeometry x="500" y="220" width="130" height="210" as="geometry">
            <mxRectangle x="-98" y="-1230" width="99" height="26" as="alternateBounds" />
          </mxGeometry>
        </mxCell>
        <mxCell id="bXsoa_GCizV7jXiJWsjs-2" value="ohmfn" style="rounded=1;whiteSpace=wrap;sketch=0;points=[[0,0.5,0,0,0],[1,0.5,0,0,0]];arcSize=50;fontFamily=Helvetica;fontSize=11;fontColor=default;fontStyle=0" parent="bXsoa_GCizV7jXiJWsjs-1" vertex="1">
          <mxGeometry x="-17" y="57.5" width="66" height="25" as="geometry" />
        </mxCell>
        <mxCell id="bXsoa_GCizV7jXiJWsjs-3" value="" style="rounded=1;whiteSpace=wrap;sketch=0;points=[[0,0.5,0,0,0],[1,0.5,0,0,0]];fillColor=#1ba1e2;fontColor=#ffffff;strokeColor=#006EAF;arcSize=50;fontFamily=Helvetica;fontSize=11;" parent="bXsoa_GCizV7jXiJWsjs-1" vertex="1">
          <mxGeometry x="100" y="27.5" width="35.25" height="25" as="geometry" />
        </mxCell>
        <mxCell id="bXsoa_GCizV7jXiJWsjs-4" value="✗" style="rounded=1;whiteSpace=wrap;sketch=0;points=[[0,0.5,0,0,0],[1,0.5,0,0,0]];fillColor=#1ba1e2;fontColor=#ffffff;strokeColor=#006EAF;arcSize=50;fontFamily=Helvetica;fontSize=11;textOpacity=30;" parent="bXsoa_GCizV7jXiJWsjs-1" vertex="1">
          <mxGeometry x="100" y="67.5" width="35.25" height="25" as="geometry" />
        </mxCell>
        <mxCell id="bXsoa_GCizV7jXiJWsjs-5" value="rwrfn" style="rounded=1;whiteSpace=wrap;sketch=0;points=[[0,0.5,0,0,0],[1,0.5,0,0,0]];arcSize=50;fontFamily=Helvetica;fontSize=11;fontColor=default;" parent="bXsoa_GCizV7jXiJWsjs-1" vertex="1">
          <mxGeometry x="-17" y="92.5" width="66" height="25" as="geometry" />
        </mxCell>
        <mxCell id="bXsoa_GCizV7jXiJWsjs-6" value="input" style="rounded=1;whiteSpace=wrap;sketch=0;points=[[0,0.5,0,0,0],[1,0.5,0,0,0]];arcSize=50;fontFamily=Helvetica;fontSize=11;fontColor=default;" parent="bXsoa_GCizV7jXiJWsjs-1" vertex="1">
          <mxGeometry x="-17" y="167.5" width="66" height="25" as="geometry" />
        </mxCell>
        <mxCell id="bXsoa_GCizV7jXiJWsjs-7" value="grammar name" style="rounded=1;whiteSpace=wrap;sketch=0;points=[[0,0.5,0,0,0],[1,0.5,0,0,0]];arcSize=50;fontFamily=Helvetica;fontSize=11;fontColor=default;" parent="bXsoa_GCizV7jXiJWsjs-1" vertex="1">
          <mxGeometry x="-16" y="27.5" width="66" height="25" as="geometry" />
        </mxCell>
        <mxCell id="bXsoa_GCizV7jXiJWsjs-8" value="rwrsupportfn" style="rounded=1;whiteSpace=wrap;sketch=0;points=[[0,0.5,0,0,0],[1,0.5,0,0,0]];arcSize=50;fontFamily=Helvetica;fontSize=11;fontColor=default;" parent="bXsoa_GCizV7jXiJWsjs-1" vertex="1">
          <mxGeometry x="-17" y="127.5" width="66" height="25" as="geometry" />
        </mxCell>
        <mxCell id="bXsoa_GCizV7jXiJWsjs-9" value="" style="edgeStyle=orthogonalEdgeStyle;shape=connector;rounded=1;jumpStyle=arc;orthogonalLoop=1;jettySize=auto;exitX=1;exitY=0.5;exitDx=0;exitDy=0;exitPerimeter=0;entryX=0;entryY=0.5;entryDx=0;entryDy=0;entryPerimeter=0;labelBackgroundColor=default;strokeColor=#666666;strokeWidth=2;fontFamily=Helvetica;fontSize=11;fontColor=default;endArrow=classic;fillColor=#f5f5f5;opacity=90;" parent="1" source="bXsoa_GCizV7jXiJWsjs-3" target="bXsoa_GCizV7jXiJWsjs-25" edge="1">
          <mxGeometry relative="1" as="geometry">
            <mxPoint x="750" y="260" as="targetPoint" />
          </mxGeometry>
        </mxCell>
        <mxCell id="bXsoa_GCizV7jXiJWsjs-10" value="" style="edgeStyle=orthogonalEdgeStyle;shape=connector;rounded=1;jumpStyle=arc;orthogonalLoop=1;jettySize=auto;exitX=1;exitY=0.5;exitDx=0;exitDy=0;exitPerimeter=0;entryX=0;entryY=0.5;entryDx=0;entryDy=0;entryPerimeter=0;labelBackgroundColor=default;strokeColor=#666666;strokeWidth=1;fontFamily=Helvetica;fontSize=11;fontColor=default;endArrow=classic;fillColor=#f5f5f5;opacity=90;" parent="1" source="bXsoa_GCizV7jXiJWsjs-4" target="bXsoa_GCizV7jXiJWsjs-26" edge="1">
          <mxGeometry relative="1" as="geometry">
            <mxPoint x="750" y="440" as="targetPoint" />
          </mxGeometry>
        </mxCell>
        <mxCell id="bXsoa_GCizV7jXiJWsjs-11" value="&#39;scn" style="rounded=1;whiteSpace=wrap;sketch=0;container=1;recursiveResize=0;verticalAlign=middle;arcSize=6;fontStyle=1;autosize=0;points=[];absoluteArcSize=1;shadow=0;strokeColor=#6c8ebf;fillColor=#dae8fc;fontFamily=Helvetica;fontSize=11;gradientColor=#E6E6E6;" parent="1" vertex="1">
          <mxGeometry x="220" y="250" width="110" height="20" as="geometry">
            <mxRectangle x="-98" y="-1230" width="99" height="26" as="alternateBounds" />
          </mxGeometry>
        </mxCell>
        <mxCell id="bXsoa_GCizV7jXiJWsjs-12" value="" style="rounded=1;whiteSpace=wrap;sketch=0;points=[[0,0.5,0,0,0],[1,0.5,0,0,0]];arcSize=50;fontFamily=Helvetica;fontSize=11;fontColor=default;" parent="bXsoa_GCizV7jXiJWsjs-11" vertex="1">
          <mxGeometry x="100" y="3.75" width="20" height="12.5" as="geometry" />
        </mxCell>
        <mxCell id="bXsoa_GCizV7jXiJWsjs-13" value="" style="rounded=1;whiteSpace=wrap;sketch=0;points=[[0,0.5,0,0,0],[1,0.5,0,0,0]];arcSize=50;fontFamily=Helvetica;fontSize=11;fontColor=default;" parent="bXsoa_GCizV7jXiJWsjs-11" vertex="1">
          <mxGeometry x="-10" y="3.75" width="20" height="12.5" as="geometry" />
        </mxCell>
        <mxCell id="bXsoa_GCizV7jXiJWsjs-14" value="&#39;support.js" style="rounded=1;whiteSpace=wrap;sketch=0;container=1;recursiveResize=0;verticalAlign=middle;arcSize=6;fontStyle=1;autosize=0;points=[];absoluteArcSize=1;shadow=0;strokeColor=#6c8ebf;fillColor=#dae8fc;fontFamily=Helvetica;fontSize=11;gradientColor=#E6E6E6;" parent="1" vertex="1">
          <mxGeometry x="210" y="350" width="200" height="20" as="geometry">
            <mxRectangle x="-98" y="-1230" width="99" height="26" as="alternateBounds" />
          </mxGeometry>
        </mxCell>
        <mxCell id="bXsoa_GCizV7jXiJWsjs-15" value="" style="rounded=1;whiteSpace=wrap;sketch=0;points=[[0,0.5,0,0,0],[1,0.5,0,0,0]];arcSize=50;fontFamily=Helvetica;fontSize=11;fontColor=default;" parent="bXsoa_GCizV7jXiJWsjs-14" vertex="1">
          <mxGeometry x="190" y="3.75" width="20" height="12.5" as="geometry" />
        </mxCell>
        <mxCell id="bXsoa_GCizV7jXiJWsjs-16" value="" style="rounded=1;whiteSpace=wrap;sketch=0;points=[[0,0.5,0,0,0],[1,0.5,0,0,0]];arcSize=50;fontFamily=Helvetica;fontSize=11;fontColor=default;" parent="bXsoa_GCizV7jXiJWsjs-14" vertex="1">
          <mxGeometry x="-10" y="3.75" width="20" height="12.5" as="geometry" />
        </mxCell>
        <mxCell id="bXsoa_GCizV7jXiJWsjs-17" value="" style="edgeStyle=orthogonalEdgeStyle;shape=connector;rounded=1;orthogonalLoop=1;jettySize=auto;entryX=0;entryY=0.5;entryDx=0;entryDy=0;entryPerimeter=0;labelBackgroundColor=default;strokeColor=default;strokeWidth=2;align=center;verticalAlign=middle;fontFamily=Helvetica;fontSize=11;fontColor=default;endArrow=classic;" parent="1" source="bXsoa_GCizV7jXiJWsjs-15" target="bXsoa_GCizV7jXiJWsjs-8" edge="1">
          <mxGeometry relative="1" as="geometry" />
        </mxCell>
        <mxCell id="bXsoa_GCizV7jXiJWsjs-19" value="&#39;identity.rwr" style="rounded=1;whiteSpace=wrap;sketch=0;container=1;recursiveResize=0;verticalAlign=middle;arcSize=6;fontStyle=1;autosize=0;points=[];absoluteArcSize=1;shadow=0;strokeColor=#6c8ebf;fillColor=#dae8fc;fontFamily=Helvetica;fontSize=11;gradientColor=#E6E6E6;" parent="1" vertex="1">
          <mxGeometry x="210" y="315" width="200" height="20" as="geometry">
            <mxRectangle x="-98" y="-1230" width="99" height="26" as="alternateBounds" />
          </mxGeometry>
        </mxCell>
        <mxCell id="bXsoa_GCizV7jXiJWsjs-20" value="" style="rounded=1;whiteSpace=wrap;sketch=0;points=[[0,0.5,0,0,0],[1,0.5,0,0,0]];arcSize=50;fontFamily=Helvetica;fontSize=11;fontColor=default;" parent="bXsoa_GCizV7jXiJWsjs-19" vertex="1">
          <mxGeometry x="190" y="3.75" width="20" height="12.5" as="geometry" />
        </mxCell>
        <mxCell id="bXsoa_GCizV7jXiJWsjs-21" value="" style="rounded=1;whiteSpace=wrap;sketch=0;points=[[0,0.5,0,0,0],[1,0.5,0,0,0]];arcSize=50;fontFamily=Helvetica;fontSize=11;fontColor=default;" parent="bXsoa_GCizV7jXiJWsjs-19" vertex="1">
          <mxGeometry x="-10" y="3.75" width="20" height="12.5" as="geometry" />
        </mxCell>
        <mxCell id="bXsoa_GCizV7jXiJWsjs-22" value="" style="edgeStyle=orthogonalEdgeStyle;shape=connector;rounded=1;orthogonalLoop=1;jettySize=auto;labelBackgroundColor=default;strokeColor=default;strokeWidth=2;align=center;verticalAlign=middle;fontFamily=Helvetica;fontSize=11;fontColor=default;endArrow=classic;" parent="1" source="bXsoa_GCizV7jXiJWsjs-20" target="bXsoa_GCizV7jXiJWsjs-5" edge="1">
          <mxGeometry relative="1" as="geometry" />
        </mxCell>
        <mxCell id="bXsoa_GCizV7jXiJWsjs-23" value="" style="edgeStyle=orthogonalEdgeStyle;shape=connector;rounded=1;orthogonalLoop=1;jettySize=auto;exitX=1;exitY=0.5;exitDx=0;exitDy=0;exitPerimeter=0;entryX=0;entryY=0.5;entryDx=0;entryDy=0;entryPerimeter=0;labelBackgroundColor=default;strokeColor=default;strokeWidth=2;align=center;verticalAlign=middle;fontFamily=Helvetica;fontSize=11;fontColor=default;endArrow=classic;" parent="1" source="bXsoa_GCizV7jXiJWsjs-12" target="bXsoa_GCizV7jXiJWsjs-7" edge="1">
          <mxGeometry relative="1" as="geometry" />
        </mxCell>
        <mxCell id="bXsoa_GCizV7jXiJWsjs-24" value="" style="rhombus;whiteSpace=wrap;rounded=1;fontStyle=1;glass=0;sketch=0;fontSize=12;points=[[0,0.5,0,0,0],[0.5,0,0,0,0],[0.5,1,0,0,0],[1,0.5,0,0,0]];shadow=1;fontFamily=Helvetica;fontColor=default;labelBackgroundColor=none;" parent="1" vertex="1">
          <mxGeometry x="60" y="380" width="40" height="40" as="geometry" />
        </mxCell>
        <mxCell id="bXsoa_GCizV7jXiJWsjs-25" value="" style="rhombus;whiteSpace=wrap;rounded=1;fontStyle=1;glass=0;sketch=0;fontSize=12;points=[[0,0.5,0,0,0],[0.5,0,0,0,0],[0.5,1,0,0,0],[1,0.5,0,0,0]];shadow=1;fillColor=#0050ef;fontColor=#ffffff;strokeColor=#001DBC;fontFamily=Helvetica;labelBackgroundColor=none;" parent="1" vertex="1">
          <mxGeometry x="720" y="240" width="40" height="40" as="geometry" />
        </mxCell>
        <mxCell id="bXsoa_GCizV7jXiJWsjs-26" value="✗" style="rhombus;whiteSpace=wrap;rounded=1;fillColor=#0050ef;fontColor=#ffffff;strokeColor=#001DBC;fontStyle=1;glass=0;sketch=0;fontSize=12;points=[[0,0.5,0,0,0],[0.5,0,0,0,0],[0.5,1,0,0,0],[1,0.5,0,0,0]];shadow=1;opacity=30;textOpacity=30;labelBackgroundColor=none;" parent="1" vertex="1">
          <mxGeometry x="720" y="400" width="40" height="40" as="geometry" />
        </mxCell>
        <mxCell id="bXsoa_GCizV7jXiJWsjs-27" value="" style="edgeStyle=orthogonalEdgeStyle;rounded=1;orthogonalLoop=1;jettySize=auto;exitX=1;exitY=0.5;exitDx=0;exitDy=0;exitPerimeter=0;entryX=0;entryY=0.5;entryDx=0;entryDy=0;entryPerimeter=0;curved=0;opacity=30;" parent="1" source="bXsoa_GCizV7jXiJWsjs-24" target="bXsoa_GCizV7jXiJWsjs-13" edge="1">
          <mxGeometry relative="1" as="geometry">
            <Array as="points">
              <mxPoint x="150" y="400" />
              <mxPoint x="150" y="260" />
            </Array>
          </mxGeometry>
        </mxCell>
        <mxCell id="bXsoa_GCizV7jXiJWsjs-28" value="" style="edgeStyle=orthogonalEdgeStyle;curved=0;rounded=1;orthogonalLoop=1;jettySize=auto;exitX=1;exitY=0.5;exitDx=0;exitDy=0;exitPerimeter=0;entryX=0;entryY=0.5;entryDx=0;entryDy=0;entryPerimeter=0;opacity=30;strokeColor=default;align=center;verticalAlign=middle;fontFamily=Helvetica;fontSize=11;fontColor=default;labelBackgroundColor=default;endArrow=classic;" parent="1" source="bXsoa_GCizV7jXiJWsjs-24" target="bXsoa_GCizV7jXiJWsjs-21" edge="1">
          <mxGeometry relative="1" as="geometry" />
        </mxCell>
        <mxCell id="bXsoa_GCizV7jXiJWsjs-29" value="" style="edgeStyle=orthogonalEdgeStyle;curved=0;rounded=1;orthogonalLoop=1;jettySize=auto;exitX=1;exitY=0.5;exitDx=0;exitDy=0;exitPerimeter=0;entryX=0;entryY=0.5;entryDx=0;entryDy=0;entryPerimeter=0;opacity=30;strokeColor=default;align=center;verticalAlign=middle;fontFamily=Helvetica;fontSize=11;fontColor=default;labelBackgroundColor=default;endArrow=classic;" parent="1" source="bXsoa_GCizV7jXiJWsjs-24" target="bXsoa_GCizV7jXiJWsjs-16" edge="1">
          <mxGeometry relative="1" as="geometry" />
        </mxCell>
        <mxCell id="bXsoa_GCizV7jXiJWsjs-30" value="" style="edgeStyle=orthogonalEdgeStyle;curved=0;rounded=1;orthogonalLoop=1;jettySize=auto;exitX=1;exitY=0.5;exitDx=0;exitDy=0;exitPerimeter=0;entryX=0;entryY=0.5;entryDx=0;entryDy=0;entryPerimeter=0;strokeColor=default;align=center;verticalAlign=middle;fontFamily=Helvetica;fontSize=11;fontColor=default;labelBackgroundColor=default;endArrow=classic;strokeWidth=2;" parent="1" source="bXsoa_GCizV7jXiJWsjs-24" target="bXsoa_GCizV7jXiJWsjs-6" edge="1">
          <mxGeometry relative="1" as="geometry" />
        </mxCell>
        <mxCell id="bXsoa_GCizV7jXiJWsjs-32" value="&#39;scn.ohm" style="rounded=1;whiteSpace=wrap;sketch=0;container=1;recursiveResize=0;verticalAlign=middle;arcSize=6;fontStyle=1;autosize=0;points=[];absoluteArcSize=1;shadow=0;strokeColor=#6c8ebf;fillColor=#dae8fc;fontFamily=Helvetica;fontSize=11;gradientColor=#E6E6E6;" parent="1" vertex="1">
          <mxGeometry x="210" y="280" width="200" height="20" as="geometry">
            <mxRectangle x="-98" y="-1230" width="99" height="26" as="alternateBounds" />
          </mxGeometry>
        </mxCell>
        <mxCell id="bXsoa_GCizV7jXiJWsjs-33" value="" style="rounded=1;whiteSpace=wrap;sketch=0;points=[[0,0.5,0,0,0],[1,0.5,0,0,0]];arcSize=50;fontFamily=Helvetica;fontSize=11;fontColor=default;" parent="bXsoa_GCizV7jXiJWsjs-32" vertex="1">
          <mxGeometry x="190" y="3.75" width="20" height="12.5" as="geometry" />
        </mxCell>
        <mxCell id="bXsoa_GCizV7jXiJWsjs-34" value="" style="rounded=1;whiteSpace=wrap;sketch=0;points=[[0,0.5,0,0,0],[1,0.5,0,0,0]];arcSize=50;fontFamily=Helvetica;fontSize=11;fontColor=default;" parent="bXsoa_GCizV7jXiJWsjs-32" vertex="1">
          <mxGeometry x="-10" y="3.75" width="20" height="12.5" as="geometry" />
        </mxCell>
        <mxCell id="bXsoa_GCizV7jXiJWsjs-35" style="edgeStyle=orthogonalEdgeStyle;rounded=0;orthogonalLoop=1;jettySize=auto;html=1;entryX=0;entryY=0.5;entryDx=0;entryDy=0;entryPerimeter=0;endSize=6;strokeWidth=2;exitX=1;exitY=0.5;exitDx=0;exitDy=0;exitPerimeter=0;" parent="1" source="bXsoa_GCizV7jXiJWsjs-33" target="bXsoa_GCizV7jXiJWsjs-2" edge="1">
          <mxGeometry relative="1" as="geometry">
            <mxPoint x="430" y="300" as="sourcePoint" />
          </mxGeometry>
        </mxCell>
        <mxCell id="bXsoa_GCizV7jXiJWsjs-36" style="edgeStyle=orthogonalEdgeStyle;rounded=1;orthogonalLoop=1;jettySize=auto;html=1;exitX=1;exitY=0.5;exitDx=0;exitDy=0;exitPerimeter=0;entryX=0;entryY=0.5;entryDx=0;entryDy=0;entryPerimeter=0;curved=0;opacity=30;" parent="1" source="bXsoa_GCizV7jXiJWsjs-24" target="bXsoa_GCizV7jXiJWsjs-34" edge="1">
          <mxGeometry relative="1" as="geometry" />
        </mxCell>
      </root>
    </mxGraphModel>
  </diagram>
  <diagram name="Python" id="0YMSeRfllrYJN2fmqdOL">
    <mxGraphModel dx="1100" dy="713" grid="1" gridSize="10" guides="1" tooltips="1" connect="1" arrows="1" fold="1" page="1" pageScale="1" pageWidth="850" pageHeight="1100" math="0" shadow="0">
      <root>
        <mxCell id="S-_Q6Imc_-PONUOx2ylv-0" />
        <mxCell id="S-_Q6Imc_-PONUOx2ylv-1" parent="S-_Q6Imc_-PONUOx2ylv-0" />
        <mxCell id="S-_Q6Imc_-PONUOx2ylv-2" value="Transpile" style="rounded=1;whiteSpace=wrap;sketch=0;container=1;recursiveResize=0;verticalAlign=top;arcSize=6;fontStyle=1;autosize=0;points=[];absoluteArcSize=1;shadow=1;strokeColor=#001DBC;fillColor=#0050ef;fontColor=#ffffff;fontFamily=Helvetica;fontSize=11;" vertex="1" parent="S-_Q6Imc_-PONUOx2ylv-1">
          <mxGeometry x="500" y="220" width="130" height="210" as="geometry">
            <mxRectangle x="-98" y="-1230" width="99" height="26" as="alternateBounds" />
          </mxGeometry>
        </mxCell>
        <mxCell id="S-_Q6Imc_-PONUOx2ylv-3" value="ohmfn" style="rounded=1;whiteSpace=wrap;sketch=0;points=[[0,0.5,0,0,0],[1,0.5,0,0,0]];arcSize=50;fontFamily=Helvetica;fontSize=11;fontColor=default;fontStyle=0" vertex="1" parent="S-_Q6Imc_-PONUOx2ylv-2">
          <mxGeometry x="-17" y="57.5" width="66" height="25" as="geometry" />
        </mxCell>
        <mxCell id="S-_Q6Imc_-PONUOx2ylv-4" value="" style="rounded=1;whiteSpace=wrap;sketch=0;points=[[0,0.5,0,0,0],[1,0.5,0,0,0]];fillColor=#1ba1e2;fontColor=#ffffff;strokeColor=#006EAF;arcSize=50;fontFamily=Helvetica;fontSize=11;" vertex="1" parent="S-_Q6Imc_-PONUOx2ylv-2">
          <mxGeometry x="100" y="27.5" width="35.25" height="25" as="geometry" />
        </mxCell>
        <mxCell id="S-_Q6Imc_-PONUOx2ylv-5" value="✗" style="rounded=1;whiteSpace=wrap;sketch=0;points=[[0,0.5,0,0,0],[1,0.5,0,0,0]];fillColor=#1ba1e2;fontColor=#ffffff;strokeColor=#006EAF;arcSize=50;fontFamily=Helvetica;fontSize=11;textOpacity=30;" vertex="1" parent="S-_Q6Imc_-PONUOx2ylv-2">
          <mxGeometry x="100" y="67.5" width="35.25" height="25" as="geometry" />
        </mxCell>
        <mxCell id="S-_Q6Imc_-PONUOx2ylv-6" value="rwrfn" style="rounded=1;whiteSpace=wrap;sketch=0;points=[[0,0.5,0,0,0],[1,0.5,0,0,0]];arcSize=50;fontFamily=Helvetica;fontSize=11;fontColor=default;" vertex="1" parent="S-_Q6Imc_-PONUOx2ylv-2">
          <mxGeometry x="-17" y="92.5" width="66" height="25" as="geometry" />
        </mxCell>
        <mxCell id="S-_Q6Imc_-PONUOx2ylv-7" value="input" style="rounded=1;whiteSpace=wrap;sketch=0;points=[[0,0.5,0,0,0],[1,0.5,0,0,0]];arcSize=50;fontFamily=Helvetica;fontSize=11;fontColor=default;" vertex="1" parent="S-_Q6Imc_-PONUOx2ylv-2">
          <mxGeometry x="-17" y="167.5" width="66" height="25" as="geometry" />
        </mxCell>
        <mxCell id="S-_Q6Imc_-PONUOx2ylv-8" value="grammar name" style="rounded=1;whiteSpace=wrap;sketch=0;points=[[0,0.5,0,0,0],[1,0.5,0,0,0]];arcSize=50;fontFamily=Helvetica;fontSize=11;fontColor=default;" vertex="1" parent="S-_Q6Imc_-PONUOx2ylv-2">
          <mxGeometry x="-16" y="27.5" width="66" height="25" as="geometry" />
        </mxCell>
        <mxCell id="S-_Q6Imc_-PONUOx2ylv-9" value="rwrsupportfn" style="rounded=1;whiteSpace=wrap;sketch=0;points=[[0,0.5,0,0,0],[1,0.5,0,0,0]];arcSize=50;fontFamily=Helvetica;fontSize=11;fontColor=default;" vertex="1" parent="S-_Q6Imc_-PONUOx2ylv-2">
          <mxGeometry x="-17" y="127.5" width="66" height="25" as="geometry" />
        </mxCell>
        <mxCell id="S-_Q6Imc_-PONUOx2ylv-10" value="" style="edgeStyle=orthogonalEdgeStyle;shape=connector;rounded=1;jumpStyle=arc;orthogonalLoop=1;jettySize=auto;exitX=1;exitY=0.5;exitDx=0;exitDy=0;exitPerimeter=0;entryX=0;entryY=0.5;entryDx=0;entryDy=0;entryPerimeter=0;labelBackgroundColor=default;strokeColor=#666666;strokeWidth=2;fontFamily=Helvetica;fontSize=11;fontColor=default;endArrow=classic;fillColor=#f5f5f5;opacity=90;" edge="1" parent="S-_Q6Imc_-PONUOx2ylv-1" source="S-_Q6Imc_-PONUOx2ylv-4" target="S-_Q6Imc_-PONUOx2ylv-25">
          <mxGeometry relative="1" as="geometry">
            <mxPoint x="750" y="260" as="targetPoint" />
          </mxGeometry>
        </mxCell>
        <mxCell id="S-_Q6Imc_-PONUOx2ylv-11" value="" style="edgeStyle=orthogonalEdgeStyle;shape=connector;rounded=1;jumpStyle=arc;orthogonalLoop=1;jettySize=auto;exitX=1;exitY=0.5;exitDx=0;exitDy=0;exitPerimeter=0;entryX=0;entryY=0.5;entryDx=0;entryDy=0;entryPerimeter=0;labelBackgroundColor=default;strokeColor=#666666;strokeWidth=1;fontFamily=Helvetica;fontSize=11;fontColor=default;endArrow=classic;fillColor=#f5f5f5;opacity=90;" edge="1" parent="S-_Q6Imc_-PONUOx2ylv-1" source="S-_Q6Imc_-PONUOx2ylv-5" target="S-_Q6Imc_-PONUOx2ylv-26">
          <mxGeometry relative="1" as="geometry">
            <mxPoint x="750" y="440" as="targetPoint" />
          </mxGeometry>
        </mxCell>
        <mxCell id="S-_Q6Imc_-PONUOx2ylv-12" value="&#39;scn" style="rounded=1;whiteSpace=wrap;sketch=0;container=1;recursiveResize=0;verticalAlign=middle;arcSize=6;fontStyle=1;autosize=0;points=[];absoluteArcSize=1;shadow=0;strokeColor=#6c8ebf;fillColor=#dae8fc;fontFamily=Helvetica;fontSize=11;gradientColor=#E6E6E6;" vertex="1" parent="S-_Q6Imc_-PONUOx2ylv-1">
          <mxGeometry x="220" y="250" width="110" height="20" as="geometry">
            <mxRectangle x="-98" y="-1230" width="99" height="26" as="alternateBounds" />
          </mxGeometry>
        </mxCell>
        <mxCell id="S-_Q6Imc_-PONUOx2ylv-13" value="" style="rounded=1;whiteSpace=wrap;sketch=0;points=[[0,0.5,0,0,0],[1,0.5,0,0,0]];arcSize=50;fontFamily=Helvetica;fontSize=11;fontColor=default;" vertex="1" parent="S-_Q6Imc_-PONUOx2ylv-12">
          <mxGeometry x="100" y="3.75" width="20" height="12.5" as="geometry" />
        </mxCell>
        <mxCell id="S-_Q6Imc_-PONUOx2ylv-14" value="" style="rounded=1;whiteSpace=wrap;sketch=0;points=[[0,0.5,0,0,0],[1,0.5,0,0,0]];arcSize=50;fontFamily=Helvetica;fontSize=11;fontColor=default;" vertex="1" parent="S-_Q6Imc_-PONUOx2ylv-12">
          <mxGeometry x="-10" y="3.75" width="20" height="12.5" as="geometry" />
        </mxCell>
        <mxCell id="S-_Q6Imc_-PONUOx2ylv-15" value="&#39;support.js" style="rounded=1;whiteSpace=wrap;sketch=0;container=1;recursiveResize=0;verticalAlign=middle;arcSize=6;fontStyle=1;autosize=0;points=[];absoluteArcSize=1;shadow=0;strokeColor=#6c8ebf;fillColor=#dae8fc;fontFamily=Helvetica;fontSize=11;gradientColor=#E6E6E6;" vertex="1" parent="S-_Q6Imc_-PONUOx2ylv-1">
          <mxGeometry x="210" y="350" width="200" height="20" as="geometry">
            <mxRectangle x="-98" y="-1230" width="99" height="26" as="alternateBounds" />
          </mxGeometry>
        </mxCell>
        <mxCell id="S-_Q6Imc_-PONUOx2ylv-16" value="" style="rounded=1;whiteSpace=wrap;sketch=0;points=[[0,0.5,0,0,0],[1,0.5,0,0,0]];arcSize=50;fontFamily=Helvetica;fontSize=11;fontColor=default;" vertex="1" parent="S-_Q6Imc_-PONUOx2ylv-15">
          <mxGeometry x="190" y="3.75" width="20" height="12.5" as="geometry" />
        </mxCell>
        <mxCell id="S-_Q6Imc_-PONUOx2ylv-17" value="" style="rounded=1;whiteSpace=wrap;sketch=0;points=[[0,0.5,0,0,0],[1,0.5,0,0,0]];arcSize=50;fontFamily=Helvetica;fontSize=11;fontColor=default;" vertex="1" parent="S-_Q6Imc_-PONUOx2ylv-15">
          <mxGeometry x="-10" y="3.75" width="20" height="12.5" as="geometry" />
        </mxCell>
        <mxCell id="S-_Q6Imc_-PONUOx2ylv-18" value="" style="edgeStyle=orthogonalEdgeStyle;shape=connector;rounded=1;orthogonalLoop=1;jettySize=auto;entryX=0;entryY=0.5;entryDx=0;entryDy=0;entryPerimeter=0;labelBackgroundColor=default;strokeColor=default;strokeWidth=2;align=center;verticalAlign=middle;fontFamily=Helvetica;fontSize=11;fontColor=default;endArrow=classic;" edge="1" parent="S-_Q6Imc_-PONUOx2ylv-1" source="S-_Q6Imc_-PONUOx2ylv-16" target="S-_Q6Imc_-PONUOx2ylv-9">
          <mxGeometry relative="1" as="geometry" />
        </mxCell>
        <mxCell id="S-_Q6Imc_-PONUOx2ylv-19" value="&#39;python.rwr" style="rounded=1;whiteSpace=wrap;sketch=0;container=1;recursiveResize=0;verticalAlign=middle;arcSize=6;fontStyle=1;autosize=0;points=[];absoluteArcSize=1;shadow=0;strokeColor=#6c8ebf;fillColor=#dae8fc;fontFamily=Helvetica;fontSize=11;gradientColor=#E6E6E6;" vertex="1" parent="S-_Q6Imc_-PONUOx2ylv-1">
          <mxGeometry x="210" y="315" width="200" height="20" as="geometry">
            <mxRectangle x="-98" y="-1230" width="99" height="26" as="alternateBounds" />
          </mxGeometry>
        </mxCell>
        <mxCell id="S-_Q6Imc_-PONUOx2ylv-20" value="" style="rounded=1;whiteSpace=wrap;sketch=0;points=[[0,0.5,0,0,0],[1,0.5,0,0,0]];arcSize=50;fontFamily=Helvetica;fontSize=11;fontColor=default;" vertex="1" parent="S-_Q6Imc_-PONUOx2ylv-19">
          <mxGeometry x="190" y="3.75" width="20" height="12.5" as="geometry" />
        </mxCell>
        <mxCell id="S-_Q6Imc_-PONUOx2ylv-21" value="" style="rounded=1;whiteSpace=wrap;sketch=0;points=[[0,0.5,0,0,0],[1,0.5,0,0,0]];arcSize=50;fontFamily=Helvetica;fontSize=11;fontColor=default;" vertex="1" parent="S-_Q6Imc_-PONUOx2ylv-19">
          <mxGeometry x="-10" y="3.75" width="20" height="12.5" as="geometry" />
        </mxCell>
        <mxCell id="S-_Q6Imc_-PONUOx2ylv-22" value="" style="edgeStyle=orthogonalEdgeStyle;shape=connector;rounded=1;orthogonalLoop=1;jettySize=auto;labelBackgroundColor=default;strokeColor=default;strokeWidth=2;align=center;verticalAlign=middle;fontFamily=Helvetica;fontSize=11;fontColor=default;endArrow=classic;" edge="1" parent="S-_Q6Imc_-PONUOx2ylv-1" source="S-_Q6Imc_-PONUOx2ylv-20" target="S-_Q6Imc_-PONUOx2ylv-6">
          <mxGeometry relative="1" as="geometry" />
        </mxCell>
        <mxCell id="S-_Q6Imc_-PONUOx2ylv-23" value="" style="edgeStyle=orthogonalEdgeStyle;shape=connector;rounded=1;orthogonalLoop=1;jettySize=auto;exitX=1;exitY=0.5;exitDx=0;exitDy=0;exitPerimeter=0;entryX=0;entryY=0.5;entryDx=0;entryDy=0;entryPerimeter=0;labelBackgroundColor=default;strokeColor=default;strokeWidth=2;align=center;verticalAlign=middle;fontFamily=Helvetica;fontSize=11;fontColor=default;endArrow=classic;" edge="1" parent="S-_Q6Imc_-PONUOx2ylv-1" source="S-_Q6Imc_-PONUOx2ylv-13" target="S-_Q6Imc_-PONUOx2ylv-8">
          <mxGeometry relative="1" as="geometry" />
        </mxCell>
        <mxCell id="S-_Q6Imc_-PONUOx2ylv-24" value="" style="rhombus;whiteSpace=wrap;rounded=1;fontStyle=1;glass=0;sketch=0;fontSize=12;points=[[0,0.5,0,0,0],[0.5,0,0,0,0],[0.5,1,0,0,0],[1,0.5,0,0,0]];shadow=1;fontFamily=Helvetica;fontColor=default;labelBackgroundColor=none;" vertex="1" parent="S-_Q6Imc_-PONUOx2ylv-1">
          <mxGeometry x="60" y="380" width="40" height="40" as="geometry" />
        </mxCell>
        <mxCell id="S-_Q6Imc_-PONUOx2ylv-25" value="" style="rhombus;whiteSpace=wrap;rounded=1;fontStyle=1;glass=0;sketch=0;fontSize=12;points=[[0,0.5,0,0,0],[0.5,0,0,0,0],[0.5,1,0,0,0],[1,0.5,0,0,0]];shadow=1;fillColor=#0050ef;fontColor=#ffffff;strokeColor=#001DBC;fontFamily=Helvetica;labelBackgroundColor=none;" vertex="1" parent="S-_Q6Imc_-PONUOx2ylv-1">
          <mxGeometry x="720" y="240" width="40" height="40" as="geometry" />
        </mxCell>
        <mxCell id="S-_Q6Imc_-PONUOx2ylv-26" value="✗" style="rhombus;whiteSpace=wrap;rounded=1;fillColor=#0050ef;fontColor=#ffffff;strokeColor=#001DBC;fontStyle=1;glass=0;sketch=0;fontSize=12;points=[[0,0.5,0,0,0],[0.5,0,0,0,0],[0.5,1,0,0,0],[1,0.5,0,0,0]];shadow=1;opacity=30;textOpacity=30;labelBackgroundColor=none;" vertex="1" parent="S-_Q6Imc_-PONUOx2ylv-1">
          <mxGeometry x="720" y="400" width="40" height="40" as="geometry" />
        </mxCell>
        <mxCell id="S-_Q6Imc_-PONUOx2ylv-27" value="" style="edgeStyle=orthogonalEdgeStyle;rounded=1;orthogonalLoop=1;jettySize=auto;exitX=1;exitY=0.5;exitDx=0;exitDy=0;exitPerimeter=0;entryX=0;entryY=0.5;entryDx=0;entryDy=0;entryPerimeter=0;curved=0;opacity=30;" edge="1" parent="S-_Q6Imc_-PONUOx2ylv-1" source="S-_Q6Imc_-PONUOx2ylv-24" target="S-_Q6Imc_-PONUOx2ylv-14">
          <mxGeometry relative="1" as="geometry">
            <Array as="points">
              <mxPoint x="150" y="400" />
              <mxPoint x="150" y="260" />
            </Array>
          </mxGeometry>
        </mxCell>
        <mxCell id="S-_Q6Imc_-PONUOx2ylv-28" value="" style="edgeStyle=orthogonalEdgeStyle;curved=0;rounded=1;orthogonalLoop=1;jettySize=auto;exitX=1;exitY=0.5;exitDx=0;exitDy=0;exitPerimeter=0;entryX=0;entryY=0.5;entryDx=0;entryDy=0;entryPerimeter=0;opacity=30;strokeColor=default;align=center;verticalAlign=middle;fontFamily=Helvetica;fontSize=11;fontColor=default;labelBackgroundColor=default;endArrow=classic;" edge="1" parent="S-_Q6Imc_-PONUOx2ylv-1" source="S-_Q6Imc_-PONUOx2ylv-24" target="S-_Q6Imc_-PONUOx2ylv-21">
          <mxGeometry relative="1" as="geometry" />
        </mxCell>
        <mxCell id="S-_Q6Imc_-PONUOx2ylv-29" value="" style="edgeStyle=orthogonalEdgeStyle;curved=0;rounded=1;orthogonalLoop=1;jettySize=auto;exitX=1;exitY=0.5;exitDx=0;exitDy=0;exitPerimeter=0;entryX=0;entryY=0.5;entryDx=0;entryDy=0;entryPerimeter=0;opacity=30;strokeColor=default;align=center;verticalAlign=middle;fontFamily=Helvetica;fontSize=11;fontColor=default;labelBackgroundColor=default;endArrow=classic;" edge="1" parent="S-_Q6Imc_-PONUOx2ylv-1" source="S-_Q6Imc_-PONUOx2ylv-24" target="S-_Q6Imc_-PONUOx2ylv-17">
          <mxGeometry relative="1" as="geometry" />
        </mxCell>
        <mxCell id="S-_Q6Imc_-PONUOx2ylv-30" value="" style="edgeStyle=orthogonalEdgeStyle;curved=0;rounded=1;orthogonalLoop=1;jettySize=auto;exitX=1;exitY=0.5;exitDx=0;exitDy=0;exitPerimeter=0;entryX=0;entryY=0.5;entryDx=0;entryDy=0;entryPerimeter=0;strokeColor=default;align=center;verticalAlign=middle;fontFamily=Helvetica;fontSize=11;fontColor=default;labelBackgroundColor=default;endArrow=classic;strokeWidth=2;" edge="1" parent="S-_Q6Imc_-PONUOx2ylv-1" source="S-_Q6Imc_-PONUOx2ylv-24" target="S-_Q6Imc_-PONUOx2ylv-7">
          <mxGeometry relative="1" as="geometry" />
        </mxCell>
        <mxCell id="S-_Q6Imc_-PONUOx2ylv-31" value="&#39;scn.ohm" style="rounded=1;whiteSpace=wrap;sketch=0;container=1;recursiveResize=0;verticalAlign=middle;arcSize=6;fontStyle=1;autosize=0;points=[];absoluteArcSize=1;shadow=0;strokeColor=#6c8ebf;fillColor=#dae8fc;fontFamily=Helvetica;fontSize=11;gradientColor=#E6E6E6;" vertex="1" parent="S-_Q6Imc_-PONUOx2ylv-1">
          <mxGeometry x="210" y="280" width="200" height="20" as="geometry">
            <mxRectangle x="-98" y="-1230" width="99" height="26" as="alternateBounds" />
          </mxGeometry>
        </mxCell>
        <mxCell id="S-_Q6Imc_-PONUOx2ylv-32" value="" style="rounded=1;whiteSpace=wrap;sketch=0;points=[[0,0.5,0,0,0],[1,0.5,0,0,0]];arcSize=50;fontFamily=Helvetica;fontSize=11;fontColor=default;" vertex="1" parent="S-_Q6Imc_-PONUOx2ylv-31">
          <mxGeometry x="190" y="3.75" width="20" height="12.5" as="geometry" />
        </mxCell>
        <mxCell id="S-_Q6Imc_-PONUOx2ylv-33" value="" style="rounded=1;whiteSpace=wrap;sketch=0;points=[[0,0.5,0,0,0],[1,0.5,0,0,0]];arcSize=50;fontFamily=Helvetica;fontSize=11;fontColor=default;" vertex="1" parent="S-_Q6Imc_-PONUOx2ylv-31">
          <mxGeometry x="-10" y="3.75" width="20" height="12.5" as="geometry" />
        </mxCell>
        <mxCell id="S-_Q6Imc_-PONUOx2ylv-34" style="edgeStyle=orthogonalEdgeStyle;rounded=0;orthogonalLoop=1;jettySize=auto;html=1;entryX=0;entryY=0.5;entryDx=0;entryDy=0;entryPerimeter=0;endSize=6;strokeWidth=2;exitX=1;exitY=0.5;exitDx=0;exitDy=0;exitPerimeter=0;" edge="1" parent="S-_Q6Imc_-PONUOx2ylv-1" source="S-_Q6Imc_-PONUOx2ylv-32" target="S-_Q6Imc_-PONUOx2ylv-3">
          <mxGeometry relative="1" as="geometry">
            <mxPoint x="430" y="300" as="sourcePoint" />
          </mxGeometry>
        </mxCell>
        <mxCell id="S-_Q6Imc_-PONUOx2ylv-35" style="edgeStyle=orthogonalEdgeStyle;rounded=1;orthogonalLoop=1;jettySize=auto;html=1;exitX=1;exitY=0.5;exitDx=0;exitDy=0;exitPerimeter=0;entryX=0;entryY=0.5;entryDx=0;entryDy=0;entryPerimeter=0;curved=0;opacity=30;" edge="1" parent="S-_Q6Imc_-PONUOx2ylv-1" source="S-_Q6Imc_-PONUOx2ylv-24" target="S-_Q6Imc_-PONUOx2ylv-33">
          <mxGeometry relative="1" as="geometry" />
        </mxCell>
      </root>
    </mxGraphModel>
  </diagram>
  <diagram name="Common Lisp" id="LSGypUCtzxPWlYipmjuV">
    <mxGraphModel dx="1100" dy="713" grid="1" gridSize="10" guides="1" tooltips="1" connect="1" arrows="1" fold="1" page="1" pageScale="1" pageWidth="850" pageHeight="1100" math="0" shadow="0">
      <root>
        <mxCell id="j6BY1V2eMxVb3NkxKQVF-0" />
        <mxCell id="j6BY1V2eMxVb3NkxKQVF-1" parent="j6BY1V2eMxVb3NkxKQVF-0" />
        <mxCell id="j6BY1V2eMxVb3NkxKQVF-2" value="Transpile" style="rounded=1;whiteSpace=wrap;sketch=0;container=1;recursiveResize=0;verticalAlign=top;arcSize=6;fontStyle=1;autosize=0;points=[];absoluteArcSize=1;shadow=1;strokeColor=#001DBC;fillColor=#0050ef;fontColor=#ffffff;fontFamily=Helvetica;fontSize=11;" vertex="1" parent="j6BY1V2eMxVb3NkxKQVF-1">
          <mxGeometry x="500" y="220" width="130" height="210" as="geometry">
            <mxRectangle x="-98" y="-1230" width="99" height="26" as="alternateBounds" />
          </mxGeometry>
        </mxCell>
        <mxCell id="j6BY1V2eMxVb3NkxKQVF-3" value="ohmfn" style="rounded=1;whiteSpace=wrap;sketch=0;points=[[0,0.5,0,0,0],[1,0.5,0,0,0]];arcSize=50;fontFamily=Helvetica;fontSize=11;fontColor=default;fontStyle=0" vertex="1" parent="j6BY1V2eMxVb3NkxKQVF-2">
          <mxGeometry x="-17" y="57.5" width="66" height="25" as="geometry" />
        </mxCell>
        <mxCell id="j6BY1V2eMxVb3NkxKQVF-4" value="" style="rounded=1;whiteSpace=wrap;sketch=0;points=[[0,0.5,0,0,0],[1,0.5,0,0,0]];fillColor=#1ba1e2;fontColor=#ffffff;strokeColor=#006EAF;arcSize=50;fontFamily=Helvetica;fontSize=11;" vertex="1" parent="j6BY1V2eMxVb3NkxKQVF-2">
          <mxGeometry x="100" y="27.5" width="35.25" height="25" as="geometry" />
        </mxCell>
        <mxCell id="j6BY1V2eMxVb3NkxKQVF-5" value="✗" style="rounded=1;whiteSpace=wrap;sketch=0;points=[[0,0.5,0,0,0],[1,0.5,0,0,0]];fillColor=#1ba1e2;fontColor=#ffffff;strokeColor=#006EAF;arcSize=50;fontFamily=Helvetica;fontSize=11;textOpacity=30;" vertex="1" parent="j6BY1V2eMxVb3NkxKQVF-2">
          <mxGeometry x="100" y="67.5" width="35.25" height="25" as="geometry" />
        </mxCell>
        <mxCell id="j6BY1V2eMxVb3NkxKQVF-6" value="rwrfn" style="rounded=1;whiteSpace=wrap;sketch=0;points=[[0,0.5,0,0,0],[1,0.5,0,0,0]];arcSize=50;fontFamily=Helvetica;fontSize=11;fontColor=default;" vertex="1" parent="j6BY1V2eMxVb3NkxKQVF-2">
          <mxGeometry x="-17" y="92.5" width="66" height="25" as="geometry" />
        </mxCell>
        <mxCell id="j6BY1V2eMxVb3NkxKQVF-7" value="input" style="rounded=1;whiteSpace=wrap;sketch=0;points=[[0,0.5,0,0,0],[1,0.5,0,0,0]];arcSize=50;fontFamily=Helvetica;fontSize=11;fontColor=default;" vertex="1" parent="j6BY1V2eMxVb3NkxKQVF-2">
          <mxGeometry x="-17" y="167.5" width="66" height="25" as="geometry" />
        </mxCell>
        <mxCell id="j6BY1V2eMxVb3NkxKQVF-8" value="grammar name" style="rounded=1;whiteSpace=wrap;sketch=0;points=[[0,0.5,0,0,0],[1,0.5,0,0,0]];arcSize=50;fontFamily=Helvetica;fontSize=11;fontColor=default;" vertex="1" parent="j6BY1V2eMxVb3NkxKQVF-2">
          <mxGeometry x="-16" y="27.5" width="66" height="25" as="geometry" />
        </mxCell>
        <mxCell id="j6BY1V2eMxVb3NkxKQVF-9" value="rwrsupportfn" style="rounded=1;whiteSpace=wrap;sketch=0;points=[[0,0.5,0,0,0],[1,0.5,0,0,0]];arcSize=50;fontFamily=Helvetica;fontSize=11;fontColor=default;" vertex="1" parent="j6BY1V2eMxVb3NkxKQVF-2">
          <mxGeometry x="-17" y="127.5" width="66" height="25" as="geometry" />
        </mxCell>
        <mxCell id="j6BY1V2eMxVb3NkxKQVF-10" value="" style="edgeStyle=orthogonalEdgeStyle;shape=connector;rounded=1;jumpStyle=arc;orthogonalLoop=1;jettySize=auto;exitX=1;exitY=0.5;exitDx=0;exitDy=0;exitPerimeter=0;entryX=0;entryY=0.5;entryDx=0;entryDy=0;entryPerimeter=0;labelBackgroundColor=default;strokeColor=#666666;strokeWidth=2;fontFamily=Helvetica;fontSize=11;fontColor=default;endArrow=classic;fillColor=#f5f5f5;opacity=90;" edge="1" parent="j6BY1V2eMxVb3NkxKQVF-1" source="j6BY1V2eMxVb3NkxKQVF-4" target="j6BY1V2eMxVb3NkxKQVF-25">
          <mxGeometry relative="1" as="geometry">
            <mxPoint x="750" y="260" as="targetPoint" />
          </mxGeometry>
        </mxCell>
        <mxCell id="j6BY1V2eMxVb3NkxKQVF-11" value="" style="edgeStyle=orthogonalEdgeStyle;shape=connector;rounded=1;jumpStyle=arc;orthogonalLoop=1;jettySize=auto;exitX=1;exitY=0.5;exitDx=0;exitDy=0;exitPerimeter=0;entryX=0;entryY=0.5;entryDx=0;entryDy=0;entryPerimeter=0;labelBackgroundColor=default;strokeColor=#666666;strokeWidth=1;fontFamily=Helvetica;fontSize=11;fontColor=default;endArrow=classic;fillColor=#f5f5f5;opacity=90;" edge="1" parent="j6BY1V2eMxVb3NkxKQVF-1" source="j6BY1V2eMxVb3NkxKQVF-5" target="j6BY1V2eMxVb3NkxKQVF-26">
          <mxGeometry relative="1" as="geometry">
            <mxPoint x="750" y="440" as="targetPoint" />
          </mxGeometry>
        </mxCell>
        <mxCell id="j6BY1V2eMxVb3NkxKQVF-12" value="&#39;scn" style="rounded=1;whiteSpace=wrap;sketch=0;container=1;recursiveResize=0;verticalAlign=middle;arcSize=6;fontStyle=1;autosize=0;points=[];absoluteArcSize=1;shadow=0;strokeColor=#6c8ebf;fillColor=#dae8fc;fontFamily=Helvetica;fontSize=11;gradientColor=#E6E6E6;" vertex="1" parent="j6BY1V2eMxVb3NkxKQVF-1">
          <mxGeometry x="220" y="250" width="110" height="20" as="geometry">
            <mxRectangle x="-98" y="-1230" width="99" height="26" as="alternateBounds" />
          </mxGeometry>
        </mxCell>
        <mxCell id="j6BY1V2eMxVb3NkxKQVF-13" value="" style="rounded=1;whiteSpace=wrap;sketch=0;points=[[0,0.5,0,0,0],[1,0.5,0,0,0]];arcSize=50;fontFamily=Helvetica;fontSize=11;fontColor=default;" vertex="1" parent="j6BY1V2eMxVb3NkxKQVF-12">
          <mxGeometry x="100" y="3.75" width="20" height="12.5" as="geometry" />
        </mxCell>
        <mxCell id="j6BY1V2eMxVb3NkxKQVF-14" value="" style="rounded=1;whiteSpace=wrap;sketch=0;points=[[0,0.5,0,0,0],[1,0.5,0,0,0]];arcSize=50;fontFamily=Helvetica;fontSize=11;fontColor=default;" vertex="1" parent="j6BY1V2eMxVb3NkxKQVF-12">
          <mxGeometry x="-10" y="3.75" width="20" height="12.5" as="geometry" />
        </mxCell>
        <mxCell id="j6BY1V2eMxVb3NkxKQVF-15" value="&#39;support.js" style="rounded=1;whiteSpace=wrap;sketch=0;container=1;recursiveResize=0;verticalAlign=middle;arcSize=6;fontStyle=1;autosize=0;points=[];absoluteArcSize=1;shadow=0;strokeColor=#6c8ebf;fillColor=#dae8fc;fontFamily=Helvetica;fontSize=11;gradientColor=#E6E6E6;" vertex="1" parent="j6BY1V2eMxVb3NkxKQVF-1">
          <mxGeometry x="210" y="350" width="200" height="20" as="geometry">
            <mxRectangle x="-98" y="-1230" width="99" height="26" as="alternateBounds" />
          </mxGeometry>
        </mxCell>
        <mxCell id="j6BY1V2eMxVb3NkxKQVF-16" value="" style="rounded=1;whiteSpace=wrap;sketch=0;points=[[0,0.5,0,0,0],[1,0.5,0,0,0]];arcSize=50;fontFamily=Helvetica;fontSize=11;fontColor=default;" vertex="1" parent="j6BY1V2eMxVb3NkxKQVF-15">
          <mxGeometry x="190" y="3.75" width="20" height="12.5" as="geometry" />
        </mxCell>
        <mxCell id="j6BY1V2eMxVb3NkxKQVF-17" value="" style="rounded=1;whiteSpace=wrap;sketch=0;points=[[0,0.5,0,0,0],[1,0.5,0,0,0]];arcSize=50;fontFamily=Helvetica;fontSize=11;fontColor=default;" vertex="1" parent="j6BY1V2eMxVb3NkxKQVF-15">
          <mxGeometry x="-10" y="3.75" width="20" height="12.5" as="geometry" />
        </mxCell>
        <mxCell id="j6BY1V2eMxVb3NkxKQVF-18" value="" style="edgeStyle=orthogonalEdgeStyle;shape=connector;rounded=1;orthogonalLoop=1;jettySize=auto;entryX=0;entryY=0.5;entryDx=0;entryDy=0;entryPerimeter=0;labelBackgroundColor=default;strokeColor=default;strokeWidth=2;align=center;verticalAlign=middle;fontFamily=Helvetica;fontSize=11;fontColor=default;endArrow=classic;" edge="1" parent="j6BY1V2eMxVb3NkxKQVF-1" source="j6BY1V2eMxVb3NkxKQVF-16" target="j6BY1V2eMxVb3NkxKQVF-9">
          <mxGeometry relative="1" as="geometry" />
        </mxCell>
        <mxCell id="j6BY1V2eMxVb3NkxKQVF-19" value="&#39;cl.rwr" style="rounded=1;whiteSpace=wrap;sketch=0;container=1;recursiveResize=0;verticalAlign=middle;arcSize=6;fontStyle=1;autosize=0;points=[];absoluteArcSize=1;shadow=0;strokeColor=#6c8ebf;fillColor=#dae8fc;fontFamily=Helvetica;fontSize=11;gradientColor=#E6E6E6;" vertex="1" parent="j6BY1V2eMxVb3NkxKQVF-1">
          <mxGeometry x="210" y="315" width="200" height="20" as="geometry">
            <mxRectangle x="-98" y="-1230" width="99" height="26" as="alternateBounds" />
          </mxGeometry>
        </mxCell>
        <mxCell id="j6BY1V2eMxVb3NkxKQVF-20" value="" style="rounded=1;whiteSpace=wrap;sketch=0;points=[[0,0.5,0,0,0],[1,0.5,0,0,0]];arcSize=50;fontFamily=Helvetica;fontSize=11;fontColor=default;" vertex="1" parent="j6BY1V2eMxVb3NkxKQVF-19">
          <mxGeometry x="190" y="3.75" width="20" height="12.5" as="geometry" />
        </mxCell>
        <mxCell id="j6BY1V2eMxVb3NkxKQVF-21" value="" style="rounded=1;whiteSpace=wrap;sketch=0;points=[[0,0.5,0,0,0],[1,0.5,0,0,0]];arcSize=50;fontFamily=Helvetica;fontSize=11;fontColor=default;" vertex="1" parent="j6BY1V2eMxVb3NkxKQVF-19">
          <mxGeometry x="-10" y="3.75" width="20" height="12.5" as="geometry" />
        </mxCell>
        <mxCell id="j6BY1V2eMxVb3NkxKQVF-22" value="" style="edgeStyle=orthogonalEdgeStyle;shape=connector;rounded=1;orthogonalLoop=1;jettySize=auto;labelBackgroundColor=default;strokeColor=default;strokeWidth=2;align=center;verticalAlign=middle;fontFamily=Helvetica;fontSize=11;fontColor=default;endArrow=classic;" edge="1" parent="j6BY1V2eMxVb3NkxKQVF-1" source="j6BY1V2eMxVb3NkxKQVF-20" target="j6BY1V2eMxVb3NkxKQVF-6">
          <mxGeometry relative="1" as="geometry" />
        </mxCell>
        <mxCell id="j6BY1V2eMxVb3NkxKQVF-23" value="" style="edgeStyle=orthogonalEdgeStyle;shape=connector;rounded=1;orthogonalLoop=1;jettySize=auto;exitX=1;exitY=0.5;exitDx=0;exitDy=0;exitPerimeter=0;entryX=0;entryY=0.5;entryDx=0;entryDy=0;entryPerimeter=0;labelBackgroundColor=default;strokeColor=default;strokeWidth=2;align=center;verticalAlign=middle;fontFamily=Helvetica;fontSize=11;fontColor=default;endArrow=classic;" edge="1" parent="j6BY1V2eMxVb3NkxKQVF-1" source="j6BY1V2eMxVb3NkxKQVF-13" target="j6BY1V2eMxVb3NkxKQVF-8">
          <mxGeometry relative="1" as="geometry" />
        </mxCell>
        <mxCell id="j6BY1V2eMxVb3NkxKQVF-24" value="" style="rhombus;whiteSpace=wrap;rounded=1;fontStyle=1;glass=0;sketch=0;fontSize=12;points=[[0,0.5,0,0,0],[0.5,0,0,0,0],[0.5,1,0,0,0],[1,0.5,0,0,0]];shadow=1;fontFamily=Helvetica;fontColor=default;labelBackgroundColor=none;" vertex="1" parent="j6BY1V2eMxVb3NkxKQVF-1">
          <mxGeometry x="60" y="380" width="40" height="40" as="geometry" />
        </mxCell>
        <mxCell id="j6BY1V2eMxVb3NkxKQVF-25" value="" style="rhombus;whiteSpace=wrap;rounded=1;fontStyle=1;glass=0;sketch=0;fontSize=12;points=[[0,0.5,0,0,0],[0.5,0,0,0,0],[0.5,1,0,0,0],[1,0.5,0,0,0]];shadow=1;fillColor=#0050ef;fontColor=#ffffff;strokeColor=#001DBC;fontFamily=Helvetica;labelBackgroundColor=none;" vertex="1" parent="j6BY1V2eMxVb3NkxKQVF-1">
          <mxGeometry x="720" y="240" width="40" height="40" as="geometry" />
        </mxCell>
        <mxCell id="j6BY1V2eMxVb3NkxKQVF-26" value="✗" style="rhombus;whiteSpace=wrap;rounded=1;fillColor=#0050ef;fontColor=#ffffff;strokeColor=#001DBC;fontStyle=1;glass=0;sketch=0;fontSize=12;points=[[0,0.5,0,0,0],[0.5,0,0,0,0],[0.5,1,0,0,0],[1,0.5,0,0,0]];shadow=1;opacity=30;textOpacity=30;labelBackgroundColor=none;" vertex="1" parent="j6BY1V2eMxVb3NkxKQVF-1">
          <mxGeometry x="720" y="400" width="40" height="40" as="geometry" />
        </mxCell>
        <mxCell id="j6BY1V2eMxVb3NkxKQVF-27" value="" style="edgeStyle=orthogonalEdgeStyle;rounded=1;orthogonalLoop=1;jettySize=auto;exitX=1;exitY=0.5;exitDx=0;exitDy=0;exitPerimeter=0;entryX=0;entryY=0.5;entryDx=0;entryDy=0;entryPerimeter=0;curved=0;opacity=30;" edge="1" parent="j6BY1V2eMxVb3NkxKQVF-1" source="j6BY1V2eMxVb3NkxKQVF-24" target="j6BY1V2eMxVb3NkxKQVF-14">
          <mxGeometry relative="1" as="geometry">
            <Array as="points">
              <mxPoint x="150" y="400" />
              <mxPoint x="150" y="260" />
            </Array>
          </mxGeometry>
        </mxCell>
        <mxCell id="j6BY1V2eMxVb3NkxKQVF-28" value="" style="edgeStyle=orthogonalEdgeStyle;curved=0;rounded=1;orthogonalLoop=1;jettySize=auto;exitX=1;exitY=0.5;exitDx=0;exitDy=0;exitPerimeter=0;entryX=0;entryY=0.5;entryDx=0;entryDy=0;entryPerimeter=0;opacity=30;strokeColor=default;align=center;verticalAlign=middle;fontFamily=Helvetica;fontSize=11;fontColor=default;labelBackgroundColor=default;endArrow=classic;" edge="1" parent="j6BY1V2eMxVb3NkxKQVF-1" source="j6BY1V2eMxVb3NkxKQVF-24" target="j6BY1V2eMxVb3NkxKQVF-21">
          <mxGeometry relative="1" as="geometry" />
        </mxCell>
        <mxCell id="j6BY1V2eMxVb3NkxKQVF-29" value="" style="edgeStyle=orthogonalEdgeStyle;curved=0;rounded=1;orthogonalLoop=1;jettySize=auto;exitX=1;exitY=0.5;exitDx=0;exitDy=0;exitPerimeter=0;entryX=0;entryY=0.5;entryDx=0;entryDy=0;entryPerimeter=0;opacity=30;strokeColor=default;align=center;verticalAlign=middle;fontFamily=Helvetica;fontSize=11;fontColor=default;labelBackgroundColor=default;endArrow=classic;" edge="1" parent="j6BY1V2eMxVb3NkxKQVF-1" source="j6BY1V2eMxVb3NkxKQVF-24" target="j6BY1V2eMxVb3NkxKQVF-17">
          <mxGeometry relative="1" as="geometry" />
        </mxCell>
        <mxCell id="j6BY1V2eMxVb3NkxKQVF-30" value="" style="edgeStyle=orthogonalEdgeStyle;curved=0;rounded=1;orthogonalLoop=1;jettySize=auto;exitX=1;exitY=0.5;exitDx=0;exitDy=0;exitPerimeter=0;entryX=0;entryY=0.5;entryDx=0;entryDy=0;entryPerimeter=0;strokeColor=default;align=center;verticalAlign=middle;fontFamily=Helvetica;fontSize=11;fontColor=default;labelBackgroundColor=default;endArrow=classic;strokeWidth=2;" edge="1" parent="j6BY1V2eMxVb3NkxKQVF-1" source="j6BY1V2eMxVb3NkxKQVF-24" target="j6BY1V2eMxVb3NkxKQVF-7">
          <mxGeometry relative="1" as="geometry" />
        </mxCell>
        <mxCell id="j6BY1V2eMxVb3NkxKQVF-31" value="&#39;scn.ohm" style="rounded=1;whiteSpace=wrap;sketch=0;container=1;recursiveResize=0;verticalAlign=middle;arcSize=6;fontStyle=1;autosize=0;points=[];absoluteArcSize=1;shadow=0;strokeColor=#6c8ebf;fillColor=#dae8fc;fontFamily=Helvetica;fontSize=11;gradientColor=#E6E6E6;" vertex="1" parent="j6BY1V2eMxVb3NkxKQVF-1">
          <mxGeometry x="210" y="280" width="200" height="20" as="geometry">
            <mxRectangle x="-98" y="-1230" width="99" height="26" as="alternateBounds" />
          </mxGeometry>
        </mxCell>
        <mxCell id="j6BY1V2eMxVb3NkxKQVF-32" value="" style="rounded=1;whiteSpace=wrap;sketch=0;points=[[0,0.5,0,0,0],[1,0.5,0,0,0]];arcSize=50;fontFamily=Helvetica;fontSize=11;fontColor=default;" vertex="1" parent="j6BY1V2eMxVb3NkxKQVF-31">
          <mxGeometry x="190" y="3.75" width="20" height="12.5" as="geometry" />
        </mxCell>
        <mxCell id="j6BY1V2eMxVb3NkxKQVF-33" value="" style="rounded=1;whiteSpace=wrap;sketch=0;points=[[0,0.5,0,0,0],[1,0.5,0,0,0]];arcSize=50;fontFamily=Helvetica;fontSize=11;fontColor=default;" vertex="1" parent="j6BY1V2eMxVb3NkxKQVF-31">
          <mxGeometry x="-10" y="3.75" width="20" height="12.5" as="geometry" />
        </mxCell>
        <mxCell id="j6BY1V2eMxVb3NkxKQVF-34" style="edgeStyle=orthogonalEdgeStyle;rounded=0;orthogonalLoop=1;jettySize=auto;html=1;entryX=0;entryY=0.5;entryDx=0;entryDy=0;entryPerimeter=0;endSize=6;strokeWidth=2;exitX=1;exitY=0.5;exitDx=0;exitDy=0;exitPerimeter=0;" edge="1" parent="j6BY1V2eMxVb3NkxKQVF-1" source="j6BY1V2eMxVb3NkxKQVF-32" target="j6BY1V2eMxVb3NkxKQVF-3">
          <mxGeometry relative="1" as="geometry">
            <mxPoint x="430" y="300" as="sourcePoint" />
          </mxGeometry>
        </mxCell>
        <mxCell id="j6BY1V2eMxVb3NkxKQVF-35" style="edgeStyle=orthogonalEdgeStyle;rounded=1;orthogonalLoop=1;jettySize=auto;html=1;exitX=1;exitY=0.5;exitDx=0;exitDy=0;exitPerimeter=0;entryX=0;entryY=0.5;entryDx=0;entryDy=0;entryPerimeter=0;curved=0;opacity=30;" edge="1" parent="j6BY1V2eMxVb3NkxKQVF-1" source="j6BY1V2eMxVb3NkxKQVF-24" target="j6BY1V2eMxVb3NkxKQVF-33">
          <mxGeometry relative="1" as="geometry" />
        </mxCell>
      </root>
    </mxGraphModel>
  </diagram>
</mxfile>
